<?xml version="1.0" encoding="UTF-8" standalone="no"?>
<!DOCTYPE svg PUBLIC "-//W3C//DTD SVG 1.1//EN"
 "http://www.w3.org/Graphics/SVG/1.1/DTD/svg11.dtd">
<!-- Generated by graphviz version 2.43.0 (0)
 -->
<!-- Title: %3 Pages: 1 -->
<svg width="355pt" height="44pt"
 viewBox="0.00 0.00 355.00 44.00" xmlns="http://www.w3.org/2000/svg" xmlns:xlink="http://www.w3.org/1999/xlink">
<g id="graph0" class="graph" transform="scale(1 1) rotate(0) translate(4 40)">
<title>%3</title>
<!-- Input -->
<g id="node1" class="node">
<title>Input</title>
<path fill="#ffffff" stroke="#586e75" d="M80,-36C80,-36 12,-36 12,-36 6,-36 0,-30 0,-24 0,-24 0,-12 0,-12 0,-6 6,0 12,0 12,0 80,0 80,0 86,0 92,-6 92,-12 92,-12 92,-24 92,-24 92,-30 86,-36 80,-36"/>
<text text-anchor="middle" x="46" y="-14.3" font-family="Inter,Arial" font-size="14.00" fill="#586e75">Known Input</text>
</g>
<!-- Evaluation -->
<g id="node2" class="node disabled">
<title>Evaluation</title>
<path fill="#ffffff" stroke="#d0dce3" d="M196,-36C196,-36 140,-36 140,-36 134,-36 128,-30 128,-24 128,-24 128,-12 128,-12 128,-6 134,0 140,0 140,0 196,0 196,0 202,0 208,-6 208,-12 208,-12 208,-24 208,-24 208,-30 202,-36 196,-36"/>
<text text-anchor="middle" x="168" y="-14.3" font-family="Inter,Arial" font-size="14.00" fill="#d0dce3">Evaluation</text>
</g>
<!-- Input&#45;&gt;Evaluation -->
<g id="edge1" class="edge disabled">
<title>Input&#45;&gt;Evaluation</title>
<path fill="none" stroke="#d0dce3" d="M92.02,-18C100.35,-18 109.08,-18 117.52,-18"/>
<polygon fill="#d0dce3" stroke="#d0dce3" points="117.63,-21.5 127.63,-18 117.63,-14.5 117.63,-21.5"/>
</g>
<!-- Analysis -->
<g id="node3" class="node disabled">
<title>Analysis</title>
<path fill="#ffffff" stroke="#d0dce3" d="M335,-36C335,-36 256,-36 256,-36 250,-36 244,-30 244,-24 244,-24 244,-12 244,-12 244,-6 250,0 256,0 256,0 335,0 335,0 341,0 347,-6 347,-12 347,-12 347,-24 347,-24 347,-30 341,-36 335,-36"/>
<text text-anchor="middle" x="295.5" y="-14.3" font-family="Inter,Arial" font-size="14.00" fill="#d0dce3">Known Output</text>
</g>
<!-- Evaluation&#45;&gt;Analysis -->
<g id="edge2" class="edge disabled">
<title>Evaluation&#45;&gt;Analysis</title>
<path fill="none" stroke="#d0dce3" d="M208.02,-18C216.19,-18 224.99,-18 233.74,-18"/>
<polygon fill="#d0dce3" stroke="#d0dce3" points="233.95,-21.5 243.95,-18 233.95,-14.5 233.95,-21.5"/>
</g>
</g>
</svg>
