<?xml version="1.0" encoding="UTF-8" standalone="no"?>
<!DOCTYPE svg PUBLIC "-//W3C//DTD SVG 1.1//EN"
 "http://www.w3.org/Graphics/SVG/1.1/DTD/svg11.dtd">
<!-- Generated by graphviz version 2.43.0 (0)
 -->
<!-- Title: %3 Pages: 1 -->
<svg width="331pt" height="44pt"
 viewBox="0.00 0.00 331.00 44.00" xmlns="http://www.w3.org/2000/svg" xmlns:xlink="http://www.w3.org/1999/xlink">
<g id="graph0" class="graph" transform="scale(1 1) rotate(0) translate(4 40)">
<title>%3</title>
<!-- Input -->
<g id="node1" class="node">
<title>Input</title>
<path fill="#ffffff" stroke="#586e75" d="M56,-36C56,-36 12,-36 12,-36 6,-36 0,-30 0,-24 0,-24 0,-12 0,-12 0,-6 6,0 12,0 12,0 56,0 56,0 62,0 68,-6 68,-12 68,-12 68,-24 68,-24 68,-30 62,-36 56,-36"/>
<text text-anchor="middle" x="34" y="-14.3" font-family="Inter,Arial" font-size="14.00" fill="#586e75">Random</text>
</g>
<!-- Evaluation -->
<g id="node2" class="node disabled">
<title>Evaluation</title>
<path fill="#ffffff" stroke="#d0dce3" d="M172,-36C172,-36 116,-36 116,-36 110,-36 104,-30 104,-24 104,-24 104,-12 104,-12 104,-6 110,0 116,0 116,0 172,0 172,0 178,0 184,-6 184,-12 184,-12 184,-24 184,-24 184,-30 178,-36 172,-36"/>
<text text-anchor="middle" x="144" y="-14.3" font-family="Inter,Arial" font-size="14.00" fill="#d0dce3">Evaluation</text>
</g>
<!-- Input&#45;&gt;Evaluation -->
<g id="edge1" class="edge disabled">
<title>Input&#45;&gt;Evaluation</title>
<path fill="none" stroke="#d0dce3" d="M68.28,-18C76.39,-18 85.23,-18 93.91,-18"/>
<polygon fill="#d0dce3" stroke="#d0dce3" points="93.95,-21.5 103.95,-18 93.95,-14.5 93.95,-21.5"/>
</g>
<!-- Analysis -->
<g id="node3" class="node disabled">
<title>Analysis</title>
<path fill="#ffffff" stroke="#d0dce3" d="M311,-36C311,-36 232,-36 232,-36 226,-36 220,-30 220,-24 220,-24 220,-12 220,-12 220,-6 226,0 232,0 232,0 311,0 311,0 317,0 323,-6 323,-12 323,-12 323,-24 323,-24 323,-30 317,-36 311,-36"/>
<text text-anchor="middle" x="271.5" y="-14.3" font-family="Inter,Arial" font-size="14.00" fill="#d0dce3">Known Output</text>
</g>
<!-- Evaluation&#45;&gt;Analysis -->
<g id="edge2" class="edge disabled">
<title>Evaluation&#45;&gt;Analysis</title>
<path fill="none" stroke="#d0dce3" d="M184.02,-18C192.19,-18 200.99,-18 209.74,-18"/>
<polygon fill="#d0dce3" stroke="#d0dce3" points="209.95,-21.5 219.95,-18 209.95,-14.5 209.95,-21.5"/>
</g>
</g>
</svg>
