<?xml version="1.0" encoding="UTF-8" standalone="no"?>
<!DOCTYPE svg PUBLIC "-//W3C//DTD SVG 1.1//EN"
 "http://www.w3.org/Graphics/SVG/1.1/DTD/svg11.dtd">
<!-- Generated by graphviz version 2.43.0 (0)
 -->
<!-- Title: %3 Pages: 1 -->
<svg width="375pt" height="44pt"
 viewBox="0.00 0.00 375.00 44.00" xmlns="http://www.w3.org/2000/svg" xmlns:xlink="http://www.w3.org/1999/xlink">
<g id="graph0" class="graph" transform="scale(1 1) rotate(0) translate(4 40)">
<title>%3</title>
<!-- Input -->
<g id="node1" class="node">
<title>Input</title>
<path fill="#ffffff" stroke="#586e75" d="M87,-36C87,-36 12,-36 12,-36 6,-36 0,-30 0,-24 0,-24 0,-12 0,-12 0,-6 6,0 12,0 12,0 87,0 87,0 93,0 99,-6 99,-12 99,-12 99,-24 99,-24 99,-30 93,-36 87,-36"/>
<text text-anchor="middle" x="49.5" y="-14.3" font-family="Inter,Arial" font-size="14.00" fill="#586e75">Known Input</text>
</g>
<!-- Evaluation -->
<g id="node2" class="node">
<title>Evaluation</title>
<path fill="#ffffff" stroke="#dddddd" d="M208,-36C208,-36 147,-36 147,-36 141,-36 135,-30 135,-24 135,-24 135,-12 135,-12 135,-6 141,0 147,0 147,0 208,0 208,0 214,0 220,-6 220,-12 220,-12 220,-24 220,-24 220,-30 214,-36 208,-36"/>
<text text-anchor="middle" x="177.5" y="-14.3" font-family="Inter,Arial" font-size="14.00" fill="#eeeeee">Evaluation</text>
</g>
<!-- Input&#45;&gt;Evaluation -->
<g id="edge1" class="edge">
<title>Input&#45;&gt;Evaluation</title>
<path fill="none" stroke="#dddddd" d="M99.21,-18C107.58,-18 116.31,-18 124.75,-18"/>
<polygon fill="#dddddd" stroke="#dddddd" points="124.88,-21.5 134.88,-18 124.88,-14.5 124.88,-21.5"/>
</g>
<!-- Analysis -->
<g id="node3" class="node">
<title>Analysis</title>
<path fill="#ffffff" stroke="#dddddd" d="M355,-36C355,-36 268,-36 268,-36 262,-36 256,-30 256,-24 256,-24 256,-12 256,-12 256,-6 262,0 268,0 268,0 355,0 355,0 361,0 367,-6 367,-12 367,-12 367,-24 367,-24 367,-30 361,-36 355,-36"/>
<text text-anchor="middle" x="311.5" y="-14.3" font-family="Inter,Arial" font-size="14.00" fill="#eeeeee">Known Output</text>
</g>
<!-- Evaluation&#45;&gt;Analysis -->
<g id="edge2" class="edge">
<title>Evaluation&#45;&gt;Analysis</title>
<path fill="none" stroke="#dddddd" d="M220.27,-18C228.41,-18 237.12,-18 245.81,-18"/>
<polygon fill="#dddddd" stroke="#dddddd" points="245.95,-21.5 255.95,-18 245.95,-14.5 245.95,-21.5"/>
</g>
</g>
</svg>
