<?xml version="1.0" encoding="UTF-8" standalone="no"?>
<!DOCTYPE svg PUBLIC "-//W3C//DTD SVG 1.1//EN"
 "http://www.w3.org/Graphics/SVG/1.1/DTD/svg11.dtd">
<!-- Generated by graphviz version 2.43.0 (0)
 -->
<!-- Title: %3 Pages: 1 -->
<svg width="347pt" height="44pt"
 viewBox="0.00 0.00 347.00 44.00" xmlns="http://www.w3.org/2000/svg" xmlns:xlink="http://www.w3.org/1999/xlink">
<g id="graph0" class="graph" transform="scale(1 1) rotate(0) translate(4 40)">
<title>%3</title>
<!-- Input -->
<g id="node1" class="node">
<title>Input</title>
<path fill="#ffffff" stroke="#dddddd" d="M59,-36C59,-36 12,-36 12,-36 6,-36 0,-30 0,-24 0,-24 0,-12 0,-12 0,-6 6,0 12,0 12,0 59,0 59,0 65,0 71,-6 71,-12 71,-12 71,-24 71,-24 71,-30 65,-36 59,-36"/>
<text text-anchor="middle" x="35.5" y="-14.3" font-family="Inter,Arial" font-size="14.00" fill="#eeeeee">Random</text>
</g>
<!-- Evaluation -->
<g id="node2" class="node">
<title>Evaluation</title>
<path fill="#ffffff" stroke="#dddddd" d="M180,-36C180,-36 119,-36 119,-36 113,-36 107,-30 107,-24 107,-24 107,-12 107,-12 107,-6 113,0 119,0 119,0 180,0 180,0 186,0 192,-6 192,-12 192,-12 192,-24 192,-24 192,-30 186,-36 180,-36"/>
<text text-anchor="middle" x="149.5" y="-14.3" font-family="Inter,Arial" font-size="14.00" fill="#eeeeee">Evaluation</text>
</g>
<!-- Input&#45;&gt;Evaluation -->
<g id="edge1" class="edge">
<title>Input&#45;&gt;Evaluation</title>
<path fill="none" stroke="#dddddd" d="M71.02,-18C79.15,-18 87.99,-18 96.7,-18"/>
<polygon fill="#dddddd" stroke="#dddddd" points="96.81,-21.5 106.81,-18 96.81,-14.5 96.81,-21.5"/>
</g>
<!-- Analysis -->
<g id="node3" class="node">
<title>Analysis</title>
<path fill="#ffffff" stroke="#586e75" d="M327,-36C327,-36 240,-36 240,-36 234,-36 228,-30 228,-24 228,-24 228,-12 228,-12 228,-6 234,0 240,0 240,0 327,0 327,0 333,0 339,-6 339,-12 339,-12 339,-24 339,-24 339,-30 333,-36 327,-36"/>
<text text-anchor="middle" x="283.5" y="-14.3" font-family="Inter,Arial" font-size="14.00" fill="#586e75">Known Output</text>
</g>
<!-- Evaluation&#45;&gt;Analysis -->
<g id="edge2" class="edge">
<title>Evaluation&#45;&gt;Analysis</title>
<path fill="none" stroke="#dddddd" d="M192.27,-18C200.41,-18 209.12,-18 217.81,-18"/>
<polygon fill="#dddddd" stroke="#dddddd" points="217.95,-21.5 227.95,-18 217.95,-14.5 217.95,-21.5"/>
</g>
</g>
</svg>
