<?xml version="1.0" encoding="UTF-8" standalone="no"?>
<!DOCTYPE svg PUBLIC "-//W3C//DTD SVG 1.1//EN"
 "http://www.w3.org/Graphics/SVG/1.1/DTD/svg11.dtd">
<!-- Generated by graphviz version 2.43.0 (0)
 -->
<!-- Title: %3 Pages: 1 -->
<svg width="342pt" height="136pt"
 viewBox="0.00 0.00 342.00 136.00" xmlns="http://www.w3.org/2000/svg" xmlns:xlink="http://www.w3.org/1999/xlink">
<g id="graph0" class="graph" transform="scale(1 1) rotate(0) translate(4 132)">
<title>%3</title>
<g id="clust1" class="cluster">
<title>cluster_0</title>
<polygon fill="transparent" stroke="transparent" points="8,-68 8,-120 326,-120 326,-68 8,-68"/>
</g>
<g id="clust2" class="cluster">
<title>cluster_1</title>
<polygon fill="transparent" stroke="transparent" points="16.5,-8 16.5,-60 216,-60 216,-8 16.5,-8"/>
</g>
<!-- Input -->
<g id="node1" class="node">
<title>Input</title>
<path fill="#ffffff" stroke="#586e75" d="M75,-112C75,-112 28,-112 28,-112 22,-112 16,-106 16,-100 16,-100 16,-88 16,-88 16,-82 22,-76 28,-76 28,-76 75,-76 75,-76 81,-76 87,-82 87,-88 87,-88 87,-100 87,-100 87,-106 81,-112 75,-112"/>
<text text-anchor="middle" x="51.5" y="-90.3" font-family="Inter,Arial" font-size="14.00" fill="#586e75">Random</text>
</g>
<!-- Evaluation -->
<g id="node2" class="node">
<title>Evaluation</title>
<path fill="#ffffff" stroke="#586e75" d="M196,-112C196,-112 135,-112 135,-112 129,-112 123,-106 123,-100 123,-100 123,-88 123,-88 123,-82 129,-76 135,-76 135,-76 196,-76 196,-76 202,-76 208,-82 208,-88 208,-88 208,-100 208,-100 208,-106 202,-112 196,-112"/>
<text text-anchor="middle" x="165.5" y="-90.3" font-family="Inter,Arial" font-size="14.00" fill="#586e75">Evaluation</text>
</g>
<!-- Input&#45;&gt;Evaluation -->
<g id="edge3" class="edge">
<title>Input&#45;&gt;Evaluation</title>
<path fill="none" stroke="#586e75" d="M87.02,-94C95.15,-94 103.99,-94 112.7,-94"/>
<polygon fill="#586e75" stroke="#586e75" points="112.81,-97.5 122.81,-94 112.81,-90.5 112.81,-97.5"/>
</g>
<!-- Invis -->
<!-- Input&#45;&gt;Invis -->
<!-- Analysis -->
<g id="node3" class="node">
<title>Analysis</title>
<path fill="#ffffff" stroke="#586e75" d="M306,-112C306,-112 256,-112 256,-112 250,-112 244,-106 244,-100 244,-100 244,-88 244,-88 244,-82 250,-76 256,-76 256,-76 306,-76 306,-76 312,-76 318,-82 318,-88 318,-88 318,-100 318,-100 318,-106 312,-112 306,-112"/>
<text text-anchor="middle" x="281" y="-90.3" font-family="Inter,Arial" font-size="14.00" fill="#586e75">Property</text>
</g>
<!-- Evaluation&#45;&gt;Analysis -->
<g id="edge4" class="edge">
<title>Evaluation&#45;&gt;Analysis</title>
<path fill="none" stroke="#586e75" d="M208.12,-94C216.48,-94 225.32,-94 233.83,-94"/>
<polygon fill="#586e75" stroke="#586e75" points="234,-97.5 244,-94 234,-90.5 234,-97.5"/>
</g>
<!-- Evaluation2 -->
<!-- Evaluation&#45;&gt;Evaluation2 -->
<!-- Invis&#45;&gt;Evaluation2 -->
<!-- Evaluation2&#45;&gt;Analysis -->
</g>
</svg>
