<?xml version="1.0" encoding="UTF-8" standalone="no"?>
<!DOCTYPE svg PUBLIC "-//W3C//DTD SVG 1.1//EN"
 "http://www.w3.org/Graphics/SVG/1.1/DTD/svg11.dtd">
<!-- Generated by graphviz version 2.43.0 (0)
 -->
<!-- Title: %3 Pages: 1 -->
<svg width="314pt" height="136pt"
 viewBox="0.00 0.00 314.00 136.00" xmlns="http://www.w3.org/2000/svg" xmlns:xlink="http://www.w3.org/1999/xlink">
<g id="graph0" class="graph" transform="scale(1 1) rotate(0) translate(4 132)">
<title>%3</title>
<g id="clust1" class="cluster">
<title>cluster_0</title>
<polygon fill="transparent" stroke="transparent" points="8,-68 8,-120 298,-120 298,-68 8,-68"/>
</g>
<g id="clust2" class="cluster">
<title>cluster_1</title>
<polygon fill="transparent" stroke="transparent" points="15,-8 15,-60 208,-60 208,-8 15,-8"/>
</g>
<!-- Input -->
<g id="node1" class="node">
<title>Input</title>
<path fill="#ffffff" stroke="#586e75" d="M72,-112C72,-112 28,-112 28,-112 22,-112 16,-106 16,-100 16,-100 16,-88 16,-88 16,-82 22,-76 28,-76 28,-76 72,-76 72,-76 78,-76 84,-82 84,-88 84,-88 84,-100 84,-100 84,-106 78,-112 72,-112"/>
<text text-anchor="middle" x="50" y="-90.3" font-family="Inter,Arial" font-size="14.00" fill="#586e75">Random</text>
</g>
<!-- Evaluation -->
<g id="node2" class="node disabled">
<title>Evaluation</title>
<path fill="#ffffff" stroke="#d0dce3" d="M188,-112C188,-112 132,-112 132,-112 126,-112 120,-106 120,-100 120,-100 120,-88 120,-88 120,-82 126,-76 132,-76 132,-76 188,-76 188,-76 194,-76 200,-82 200,-88 200,-88 200,-100 200,-100 200,-106 194,-112 188,-112"/>
<text text-anchor="middle" x="160" y="-90.3" font-family="Inter,Arial" font-size="14.00" fill="#d0dce3">Evaluation</text>
</g>
<!-- Input&#45;&gt;Evaluation -->
<g id="edge3" class="edge disabled">
<title>Input&#45;&gt;Evaluation</title>
<path fill="none" stroke="#d0dce3" d="M84.28,-94C92.39,-94 101.23,-94 109.91,-94"/>
<polygon fill="#d0dce3" stroke="#d0dce3" points="109.95,-97.5 119.95,-94 109.95,-90.5 109.95,-97.5"/>
</g>
<!-- Invis -->
<!-- Input&#45;&gt;Invis -->
<!-- Analysis -->
<g id="node3" class="node disabled">
<title>Analysis</title>
<path fill="#ffffff" stroke="#d0dce3" d="M278,-112C278,-112 248,-112 248,-112 242,-112 236,-106 236,-100 236,-100 236,-88 236,-88 236,-82 242,-76 248,-76 248,-76 278,-76 278,-76 284,-76 290,-82 290,-88 290,-88 290,-100 290,-100 290,-106 284,-112 278,-112"/>
<text text-anchor="middle" x="263" y="-90.3" font-family="Inter,Arial" font-size="14.00" fill="#d0dce3">=</text>
</g>
<!-- Evaluation&#45;&gt;Analysis -->
<g id="edge4" class="edge disabled">
<title>Evaluation&#45;&gt;Analysis</title>
<path fill="none" stroke="#d0dce3" d="M200.05,-94C208.48,-94 217.36,-94 225.68,-94"/>
<polygon fill="#d0dce3" stroke="#d0dce3" points="225.85,-97.5 235.85,-94 225.85,-90.5 225.85,-97.5"/>
</g>
<!-- Evaluation2 -->
<g id="node5" class="node disabled">
<title>Evaluation2</title>
<path fill="#ffffff" stroke="#d0dce3" d="M188,-52C188,-52 132,-52 132,-52 126,-52 120,-46 120,-40 120,-40 120,-28 120,-28 120,-22 126,-16 132,-16 132,-16 188,-16 188,-16 194,-16 200,-22 200,-28 200,-28 200,-40 200,-40 200,-46 194,-52 188,-52"/>
<text text-anchor="middle" x="160" y="-30.3" font-family="Inter,Arial" font-size="14.00" fill="#d0dce3">Evaluation</text>
</g>
<!-- Evaluation&#45;&gt;Evaluation2 -->
<g id="edge5" class="edge disabled">
<title>Evaluation&#45;&gt;Evaluation2</title>
<path fill="none" stroke="#d0dce3" d="M160,-75.75C160,-71.35 160,-66.95 160,-62.55"/>
<polygon fill="#d0dce3" stroke="#d0dce3" points="163.5,-62.28 160,-52.28 156.5,-62.28 163.5,-62.28"/>
</g>
<!-- Invis&#45;&gt;Evaluation2 -->
<!-- Evaluation2&#45;&gt;Analysis -->
<g id="edge6" class="edge disabled">
<title>Evaluation2&#45;&gt;Analysis</title>
<path fill="none" stroke="#d0dce3" d="M191.3,-52C202.6,-58.71 215.51,-66.38 227.19,-73.32"/>
<polygon fill="#d0dce3" stroke="#d0dce3" points="225.44,-76.35 235.82,-78.45 229.01,-70.33 225.44,-76.35"/>
</g>
</g>
</svg>
