<?xml version="1.0" encoding="UTF-8" standalone="no"?>
<!DOCTYPE svg PUBLIC "-//W3C//DTD SVG 1.1//EN"
 "http://www.w3.org/Graphics/SVG/1.1/DTD/svg11.dtd">
<!-- Generated by graphviz version 2.43.0 (0)
 -->
<!-- Title: %3 Pages: 1 -->
<svg width="328pt" height="156pt"
 viewBox="0.00 0.00 328.00 156.00" xmlns="http://www.w3.org/2000/svg" xmlns:xlink="http://www.w3.org/1999/xlink">
<g id="graph0" class="graph" transform="scale(1 1) rotate(0) translate(4 152)">
<title>%3</title>
<g id="clust1" class="cluster">
<title>cluster_0</title>
<polygon fill="transparent" stroke="transparent" points="8,-68 8,-140 312,-140 312,-68 8,-68"/>
</g>
<g id="clust2" class="cluster">
<title>cluster_1</title>
<polygon fill="transparent" stroke="transparent" points="15,-8 15,-60 198.5,-60 198.5,-8 15,-8"/>
</g>
<!-- Input -->
<g id="node1" class="node">
<title>Input</title>
<path fill="#ffffff" stroke="#586e75" d="M72,-112C72,-112 28,-112 28,-112 22,-112 16,-106 16,-100 16,-100 16,-88 16,-88 16,-82 22,-76 28,-76 28,-76 72,-76 72,-76 78,-76 84,-82 84,-88 84,-88 84,-100 84,-100 84,-106 78,-112 72,-112"/>
<text text-anchor="middle" x="50" y="-90.3" font-family="Inter,Arial" font-size="14.00" fill="#586e75">Random</text>
</g>
<!-- Evaluation -->
<g id="node2" class="node">
<title>Evaluation</title>
<path fill="#ffffff" stroke="#586e75" d="M188,-112C188,-112 132,-112 132,-112 126,-112 120,-106 120,-100 120,-100 120,-88 120,-88 120,-82 126,-76 132,-76 132,-76 188,-76 188,-76 194,-76 200,-82 200,-88 200,-88 200,-100 200,-100 200,-106 194,-112 188,-112"/>
<text text-anchor="middle" x="160" y="-90.3" font-family="Inter,Arial" font-size="14.00" fill="#586e75">Evaluation</text>
</g>
<!-- Input&#45;&gt;Evaluation -->
<g id="edge3" class="edge">
<title>Input&#45;&gt;Evaluation</title>
<path fill="none" stroke="#586e75" d="M84.28,-94C92.39,-94 101.23,-94 109.91,-94"/>
<polygon fill="#586e75" stroke="#586e75" points="109.95,-97.5 119.95,-94 109.95,-90.5 109.95,-97.5"/>
</g>
<!-- Analysis -->
<g id="node3" class="node">
<title>Analysis</title>
<path fill="#ffffff" stroke="#586e75" d="M292,-112C292,-112 248,-112 248,-112 242,-112 236,-106 236,-100 236,-100 236,-88 236,-88 236,-82 242,-76 248,-76 248,-76 292,-76 292,-76 298,-76 304,-82 304,-88 304,-88 304,-100 304,-100 304,-106 298,-112 292,-112"/>
<text text-anchor="middle" x="270" y="-90.3" font-family="Inter,Arial" font-size="14.00" fill="#586e75">Property</text>
</g>
<!-- Input&#45;&gt;Analysis -->
<!-- Invis -->
<!-- Input&#45;&gt;Invis -->
<!-- Evaluation&#45;&gt;Analysis -->
<g id="edge4" class="edge">
<title>Evaluation&#45;&gt;Analysis</title>
<path fill="none" stroke="#586e75" d="M200.3,-94C208.61,-94 217.44,-94 225.89,-94"/>
<polygon fill="#586e75" stroke="#586e75" points="225.95,-97.5 235.95,-94 225.95,-90.5 225.95,-97.5"/>
</g>
<!-- Inverse -->
<g id="node5" class="node">
<title>Inverse</title>
<path fill="#ffffff" stroke="#586e75" d="M178.5,-52C178.5,-52 141.5,-52 141.5,-52 135.5,-52 129.5,-46 129.5,-40 129.5,-40 129.5,-28 129.5,-28 129.5,-22 135.5,-16 141.5,-16 141.5,-16 178.5,-16 178.5,-16 184.5,-16 190.5,-22 190.5,-28 190.5,-28 190.5,-40 190.5,-40 190.5,-46 184.5,-52 178.5,-52"/>
<text text-anchor="middle" x="160" y="-30.3" font-family="Inter,Arial" font-size="14.00" fill="#586e75">Inverse</text>
</g>
<!-- Evaluation&#45;&gt;Inverse -->
<!-- Invis&#45;&gt;Inverse -->
<!-- Inverse&#45;&gt;Analysis -->
</g>
</svg>
