<?xml version="1.0" encoding="UTF-8" standalone="no"?>
<!DOCTYPE svg PUBLIC "-//W3C//DTD SVG 1.1//EN"
 "http://www.w3.org/Graphics/SVG/1.1/DTD/svg11.dtd">
<!-- Generated by graphviz version 2.43.0 (0)
 -->
<!-- Title: %3 Pages: 1 -->
<svg width="322pt" height="156pt"
 viewBox="0.00 0.00 322.00 156.00" xmlns="http://www.w3.org/2000/svg" xmlns:xlink="http://www.w3.org/1999/xlink">
<g id="graph0" class="graph" transform="scale(1 1) rotate(0) translate(4 152)">
<title>%3</title>
<g id="clust1" class="cluster">
<title>cluster_0</title>
<polygon fill="transparent" stroke="transparent" points="8,-68 8,-140 306,-140 306,-68 8,-68"/>
</g>
<g id="clust2" class="cluster">
<title>cluster_1</title>
<polygon fill="transparent" stroke="transparent" points="16.5,-8 16.5,-60 206,-60 206,-8 16.5,-8"/>
</g>
<!-- Input -->
<g id="node1" class="node">
<title>Input</title>
<path fill="#ffffff" stroke="#586e75" d="M75,-112C75,-112 28,-112 28,-112 22,-112 16,-106 16,-100 16,-100 16,-88 16,-88 16,-82 22,-76 28,-76 28,-76 75,-76 75,-76 81,-76 87,-82 87,-88 87,-88 87,-100 87,-100 87,-106 81,-112 75,-112"/>
<text text-anchor="middle" x="51.5" y="-90.3" font-family="Inter,Arial" font-size="14.00" fill="#586e75">Random</text>
</g>
<!-- Evaluation -->
<g id="node2" class="node disabled">
<title>Evaluation</title>
<path fill="#ffffff" stroke="#d0dce3" d="M196,-112C196,-112 135,-112 135,-112 129,-112 123,-106 123,-100 123,-100 123,-88 123,-88 123,-82 129,-76 135,-76 135,-76 196,-76 196,-76 202,-76 208,-82 208,-88 208,-88 208,-100 208,-100 208,-106 202,-112 196,-112"/>
<text text-anchor="middle" x="165.5" y="-90.3" font-family="Inter,Arial" font-size="14.00" fill="#d0dce3">Evaluation</text>
</g>
<!-- Input&#45;&gt;Evaluation -->
<g id="edge3" class="edge disabled">
<title>Input&#45;&gt;Evaluation</title>
<path fill="none" stroke="#d0dce3" d="M87.02,-94C95.15,-94 103.99,-94 112.7,-94"/>
<polygon fill="#d0dce3" stroke="#d0dce3" points="112.81,-97.5 122.81,-94 112.81,-90.5 112.81,-97.5"/>
</g>
<!-- Analysis -->
<g id="node3" class="node">
<title>Analysis</title>
<path fill="#ffffff" stroke="#586e75" d="M286,-112C286,-112 256,-112 256,-112 250,-112 244,-106 244,-100 244,-100 244,-88 244,-88 244,-82 250,-76 256,-76 256,-76 286,-76 286,-76 292,-76 298,-82 298,-88 298,-88 298,-100 298,-100 298,-106 292,-112 286,-112"/>
<text text-anchor="middle" x="271" y="-90.3" font-family="Inter,Arial" font-size="14.00" fill="#586e75">=</text>
</g>
<!-- Input&#45;&gt;Analysis -->
<g id="edge7" class="edge">
<title>Input&#45;&gt;Analysis</title>
<path fill="none" stroke="#586e75" d="M87.27,-110.2C98.43,-114.61 111.01,-118.78 123,-121 160.15,-127.87 171.02,-128.7 208,-121 216.94,-119.14 226.16,-115.92 234.68,-112.34"/>
<polygon fill="#586e75" stroke="#586e75" points="236.24,-115.47 243.94,-108.19 233.38,-109.08 236.24,-115.47"/>
</g>
<!-- Invis -->
<!-- Input&#45;&gt;Invis -->
<!-- Evaluation&#45;&gt;Analysis -->
<!-- Inverse -->
<g id="node5" class="node disabled">
<title>Inverse</title>
<path fill="#ffffff" stroke="#d0dce3" d="M186,-52C186,-52 145,-52 145,-52 139,-52 133,-46 133,-40 133,-40 133,-28 133,-28 133,-22 139,-16 145,-16 145,-16 186,-16 186,-16 192,-16 198,-22 198,-28 198,-28 198,-40 198,-40 198,-46 192,-52 186,-52"/>
<text text-anchor="middle" x="165.5" y="-30.3" font-family="Inter,Arial" font-size="14.00" fill="#d0dce3">Inverse</text>
</g>
<!-- Evaluation&#45;&gt;Inverse -->
<g id="edge5" class="edge disabled">
<title>Evaluation&#45;&gt;Inverse</title>
<path fill="none" stroke="#d0dce3" d="M165.5,-75.75C165.5,-71.35 165.5,-66.95 165.5,-62.55"/>
<polygon fill="#d0dce3" stroke="#d0dce3" points="169,-62.28 165.5,-52.28 162,-62.28 169,-62.28"/>
</g>
<!-- Invis&#45;&gt;Inverse -->
<!-- Inverse&#45;&gt;Analysis -->
<g id="edge6" class="edge disabled">
<title>Inverse&#45;&gt;Analysis</title>
<path fill="none" stroke="#d0dce3" d="M197.55,-52C209.32,-58.82 222.8,-66.64 234.91,-73.66"/>
<polygon fill="#d0dce3" stroke="#d0dce3" points="233.45,-76.86 243.86,-78.84 236.96,-70.8 233.45,-76.86"/>
</g>
</g>
</svg>
