<?xml version="1.0" encoding="UTF-8" standalone="no"?>
<!DOCTYPE svg PUBLIC "-//W3C//DTD SVG 1.1//EN"
 "http://www.w3.org/Graphics/SVG/1.1/DTD/svg11.dtd">
<!-- Generated by graphviz version 2.43.0 (0)
 -->
<!-- Title: %3 Pages: 1 -->
<svg width="314pt" height="156pt"
 viewBox="0.00 0.00 314.00 156.00" xmlns="http://www.w3.org/2000/svg" xmlns:xlink="http://www.w3.org/1999/xlink">
<g id="graph0" class="graph" transform="scale(1 1) rotate(0) translate(4 152)">
<title>%3</title>
<g id="clust1" class="cluster">
<title>cluster_0</title>
<polygon fill="transparent" stroke="transparent" points="8,-68 8,-140 298,-140 298,-68 8,-68"/>
</g>
<g id="clust2" class="cluster">
<title>cluster_1</title>
<polygon fill="transparent" stroke="transparent" points="15,-8 15,-60 198.5,-60 198.5,-8 15,-8"/>
</g>
<!-- Input -->
<g id="node1" class="node">
<title>Input</title>
<path fill="#ffffff" stroke="#586e75" d="M72,-112C72,-112 28,-112 28,-112 22,-112 16,-106 16,-100 16,-100 16,-88 16,-88 16,-82 22,-76 28,-76 28,-76 72,-76 72,-76 78,-76 84,-82 84,-88 84,-88 84,-100 84,-100 84,-106 78,-112 72,-112"/>
<text text-anchor="middle" x="50" y="-90.3" font-family="Inter,Arial" font-size="14.00" fill="#586e75">Random</text>
</g>
<!-- Evaluation -->
<g id="node2" class="node disabled">
<title>Evaluation</title>
<path fill="#ffffff" stroke="#d0dce3" d="M188,-112C188,-112 132,-112 132,-112 126,-112 120,-106 120,-100 120,-100 120,-88 120,-88 120,-82 126,-76 132,-76 132,-76 188,-76 188,-76 194,-76 200,-82 200,-88 200,-88 200,-100 200,-100 200,-106 194,-112 188,-112"/>
<text text-anchor="middle" x="160" y="-90.3" font-family="Inter,Arial" font-size="14.00" fill="#d0dce3">Evaluation</text>
</g>
<!-- Input&#45;&gt;Evaluation -->
<g id="edge3" class="edge disabled">
<title>Input&#45;&gt;Evaluation</title>
<path fill="none" stroke="#d0dce3" d="M84.28,-94C92.39,-94 101.23,-94 109.91,-94"/>
<polygon fill="#d0dce3" stroke="#d0dce3" points="109.95,-97.5 119.95,-94 109.95,-90.5 109.95,-97.5"/>
</g>
<!-- Analysis -->
<g id="node3" class="node">
<title>Analysis</title>
<path fill="#ffffff" stroke="#586e75" d="M278,-112C278,-112 248,-112 248,-112 242,-112 236,-106 236,-100 236,-100 236,-88 236,-88 236,-82 242,-76 248,-76 248,-76 278,-76 278,-76 284,-76 290,-82 290,-88 290,-88 290,-100 290,-100 290,-106 284,-112 278,-112"/>
<text text-anchor="middle" x="263" y="-90.3" font-family="Inter,Arial" font-size="14.00" fill="#586e75">=</text>
</g>
<!-- Input&#45;&gt;Analysis -->
<g id="edge7" class="edge">
<title>Input&#45;&gt;Analysis</title>
<path fill="none" stroke="#586e75" d="M84.3,-109.92C95.39,-114.43 107.99,-118.73 120,-121 154.94,-127.59 165.19,-128.25 200,-121 208.94,-119.14 218.16,-115.92 226.68,-112.34"/>
<polygon fill="#586e75" stroke="#586e75" points="228.24,-115.47 235.94,-108.19 225.38,-109.08 228.24,-115.47"/>
</g>
<!-- Invis -->
<!-- Input&#45;&gt;Invis -->
<!-- Evaluation&#45;&gt;Analysis -->
<!-- Inverse -->
<g id="node5" class="node disabled">
<title>Inverse</title>
<path fill="#ffffff" stroke="#d0dce3" d="M178.5,-52C178.5,-52 141.5,-52 141.5,-52 135.5,-52 129.5,-46 129.5,-40 129.5,-40 129.5,-28 129.5,-28 129.5,-22 135.5,-16 141.5,-16 141.5,-16 178.5,-16 178.5,-16 184.5,-16 190.5,-22 190.5,-28 190.5,-28 190.5,-40 190.5,-40 190.5,-46 184.5,-52 178.5,-52"/>
<text text-anchor="middle" x="160" y="-30.3" font-family="Inter,Arial" font-size="14.00" fill="#d0dce3">Inverse</text>
</g>
<!-- Evaluation&#45;&gt;Inverse -->
<g id="edge5" class="edge disabled">
<title>Evaluation&#45;&gt;Inverse</title>
<path fill="none" stroke="#d0dce3" d="M160,-75.75C160,-71.35 160,-66.95 160,-62.55"/>
<polygon fill="#d0dce3" stroke="#d0dce3" points="163.5,-62.28 160,-52.28 156.5,-62.28 163.5,-62.28"/>
</g>
<!-- Invis&#45;&gt;Inverse -->
<!-- Inverse&#45;&gt;Analysis -->
<g id="edge6" class="edge disabled">
<title>Inverse&#45;&gt;Analysis</title>
<path fill="none" stroke="#d0dce3" d="M190.76,-51.68C202.16,-58.45 215.28,-66.25 227.12,-73.28"/>
<polygon fill="#d0dce3" stroke="#d0dce3" points="225.5,-76.39 235.88,-78.49 229.07,-70.37 225.5,-76.39"/>
</g>
</g>
</svg>
