<?xml version="1.0" encoding="UTF-8" standalone="no"?>
<!DOCTYPE svg PUBLIC "-//W3C//DTD SVG 1.1//EN"
 "http://www.w3.org/Graphics/SVG/1.1/DTD/svg11.dtd">
<!-- Generated by graphviz version 2.43.0 (0)
 -->
<!-- Title: %3 Pages: 1 -->
<svg width="420pt" height="136pt"
 viewBox="0.00 0.00 420.00 136.00" xmlns="http://www.w3.org/2000/svg" xmlns:xlink="http://www.w3.org/1999/xlink">
<g id="graph0" class="graph" transform="scale(1 1) rotate(0) translate(4 132)">
<title>%3</title>
<g id="clust1" class="cluster">
<title>cluster_0</title>
<polygon fill="transparent" stroke="transparent" points="13.5,-68 13.5,-120 404,-120 404,-68 13.5,-68"/>
</g>
<g id="clust2" class="cluster">
<title>cluster_1</title>
<polygon fill="transparent" stroke="transparent" points="8,-8 8,-60 219,-60 219,-8 8,-8"/>
</g>
<!-- Input -->
<g id="node1" class="node disabled">
<title>Input</title>
<path fill="#ffffff" stroke="#d0dce3" d="M77.5,-112C77.5,-112 33.5,-112 33.5,-112 27.5,-112 21.5,-106 21.5,-100 21.5,-100 21.5,-88 21.5,-88 21.5,-82 27.5,-76 33.5,-76 33.5,-76 77.5,-76 77.5,-76 83.5,-76 89.5,-82 89.5,-88 89.5,-88 89.5,-100 89.5,-100 89.5,-106 83.5,-112 77.5,-112"/>
<text text-anchor="middle" x="55.5" y="-90.3" font-family="Inter,Arial" font-size="14.00" fill="#d0dce3">Random</text>
</g>
<!-- Evaluation -->
<g id="node2" class="node disabled">
<title>Evaluation</title>
<path fill="#ffffff" stroke="#d0dce3" d="M199,-112C199,-112 143,-112 143,-112 137,-112 131,-106 131,-100 131,-100 131,-88 131,-88 131,-82 137,-76 143,-76 143,-76 199,-76 199,-76 205,-76 211,-82 211,-88 211,-88 211,-100 211,-100 211,-106 205,-112 199,-112"/>
<text text-anchor="middle" x="171" y="-90.3" font-family="Inter,Arial" font-size="14.00" fill="#d0dce3">Evaluation</text>
</g>
<!-- Input&#45;&gt;Evaluation -->
<g id="edge3" class="edge disabled">
<title>Input&#45;&gt;Evaluation</title>
<path fill="none" stroke="#d0dce3" d="M89.63,-94C99.25,-94 109.97,-94 120.37,-94"/>
<polygon fill="#d0dce3" stroke="#d0dce3" points="120.6,-97.5 130.6,-94 120.6,-90.5 120.6,-97.5"/>
</g>
<!-- Input2 -->
<g id="node4" class="node disabled">
<title>Input2</title>
<path fill="#ffffff" stroke="#d0dce3" d="M83,-52C83,-52 28,-52 28,-52 22,-52 16,-46 16,-40 16,-40 16,-28 16,-28 16,-22 22,-16 28,-16 28,-16 83,-16 83,-16 89,-16 95,-22 95,-28 95,-28 95,-40 95,-40 95,-46 89,-52 83,-52"/>
<text text-anchor="middle" x="55.5" y="-30.3" font-family="Inter,Arial" font-size="14.00" fill="#d0dce3">Transform</text>
</g>
<!-- Input&#45;&gt;Input2 -->
<g id="edge1" class="edge disabled">
<title>Input&#45;&gt;Input2</title>
<path fill="none" stroke="#d0dce3" d="M55.5,-75.75C55.5,-71.35 55.5,-66.95 55.5,-62.55"/>
<polygon fill="#d0dce3" stroke="#d0dce3" points="59,-62.28 55.5,-52.28 52,-62.28 59,-62.28"/>
</g>
<!-- Analysis -->
<g id="node3" class="node">
<title>Analysis</title>
<path fill="#ffffff" stroke="#586e75" d="M384,-112C384,-112 259,-112 259,-112 253,-112 247,-106 247,-100 247,-100 247,-88 247,-88 247,-82 253,-76 259,-76 259,-76 384,-76 384,-76 390,-76 396,-82 396,-88 396,-88 396,-100 396,-100 396,-106 390,-112 384,-112"/>
<text text-anchor="middle" x="321.5" y="-90.3" font-family="Inter,Arial" font-size="14.00" fill="#586e75">Metamorphic Relation</text>
</g>
<!-- Evaluation&#45;&gt;Analysis -->
<g id="edge4" class="edge disabled">
<title>Evaluation&#45;&gt;Analysis</title>
<path fill="none" stroke="#d0dce3" d="M211.02,-94C219.07,-94 227.85,-94 236.81,-94"/>
<polygon fill="#d0dce3" stroke="#d0dce3" points="236.97,-97.5 246.97,-94 236.97,-90.5 236.97,-97.5"/>
</g>
<!-- Evaluation2 -->
<g id="node5" class="node disabled">
<title>Evaluation2</title>
<path fill="#ffffff" stroke="#d0dce3" d="M199,-52C199,-52 143,-52 143,-52 137,-52 131,-46 131,-40 131,-40 131,-28 131,-28 131,-22 137,-16 143,-16 143,-16 199,-16 199,-16 205,-16 211,-22 211,-28 211,-28 211,-40 211,-40 211,-46 205,-52 199,-52"/>
<text text-anchor="middle" x="171" y="-30.3" font-family="Inter,Arial" font-size="14.00" fill="#d0dce3">Evaluation</text>
</g>
<!-- Input2&#45;&gt;Evaluation2 -->
<g id="edge2" class="edge disabled">
<title>Input2&#45;&gt;Evaluation2</title>
<path fill="none" stroke="#d0dce3" d="M95.24,-34C103.37,-34 112.05,-34 120.5,-34"/>
<polygon fill="#d0dce3" stroke="#d0dce3" points="120.66,-37.5 130.66,-34 120.66,-30.5 120.66,-37.5"/>
</g>
<!-- Evaluation2&#45;&gt;Analysis -->
<g id="edge5" class="edge disabled">
<title>Evaluation2&#45;&gt;Analysis</title>
<path fill="none" stroke="#d0dce3" d="M211.02,-49.76C227.92,-56.59 248,-64.71 266.31,-72.11"/>
<polygon fill="#d0dce3" stroke="#d0dce3" points="265.12,-75.4 275.7,-75.9 267.74,-68.91 265.12,-75.4"/>
</g>
</g>
</svg>
