<?xml version="1.0" encoding="UTF-8" standalone="no"?>
<!DOCTYPE svg PUBLIC "-//W3C//DTD SVG 1.1//EN"
 "http://www.w3.org/Graphics/SVG/1.1/DTD/svg11.dtd">
<!-- Generated by graphviz version 2.43.0 (0)
 -->
<!-- Title: %3 Pages: 1 -->
<svg width="442pt" height="136pt"
 viewBox="0.00 0.00 442.00 136.00" xmlns="http://www.w3.org/2000/svg" xmlns:xlink="http://www.w3.org/1999/xlink">
<g id="graph0" class="graph" transform="scale(1 1) rotate(0) translate(4 132)">
<title>%3</title>
<g id="clust1" class="cluster">
<title>cluster_0</title>
<polygon fill="transparent" stroke="transparent" points="14.5,-68 14.5,-120 426,-120 426,-68 14.5,-68"/>
</g>
<g id="clust2" class="cluster">
<title>cluster_1</title>
<polygon fill="transparent" stroke="transparent" points="8,-8 8,-60 229,-60 229,-8 8,-8"/>
</g>
<!-- Input -->
<g id="node1" class="node">
<title>Input</title>
<path fill="#ffffff" stroke="#dddddd" d="M81.5,-112C81.5,-112 34.5,-112 34.5,-112 28.5,-112 22.5,-106 22.5,-100 22.5,-100 22.5,-88 22.5,-88 22.5,-82 28.5,-76 34.5,-76 34.5,-76 81.5,-76 81.5,-76 87.5,-76 93.5,-82 93.5,-88 93.5,-88 93.5,-100 93.5,-100 93.5,-106 87.5,-112 81.5,-112"/>
<text text-anchor="middle" x="58" y="-90.3" font-family="Inter,Arial" font-size="14.00" fill="#eeeeee">Random</text>
</g>
<!-- Evaluation -->
<g id="node2" class="node">
<title>Evaluation</title>
<path fill="#ffffff" stroke="#dddddd" d="M209,-112C209,-112 148,-112 148,-112 142,-112 136,-106 136,-100 136,-100 136,-88 136,-88 136,-82 142,-76 148,-76 148,-76 209,-76 209,-76 215,-76 221,-82 221,-88 221,-88 221,-100 221,-100 221,-106 215,-112 209,-112"/>
<text text-anchor="middle" x="178.5" y="-90.3" font-family="Inter,Arial" font-size="14.00" fill="#eeeeee">Evaluation</text>
</g>
<!-- Input&#45;&gt;Evaluation -->
<g id="edge3" class="edge">
<title>Input&#45;&gt;Evaluation</title>
<path fill="none" stroke="#dddddd" d="M93.59,-94C103.64,-94 114.83,-94 125.69,-94"/>
<polygon fill="#dddddd" stroke="#dddddd" points="125.94,-97.5 135.94,-94 125.94,-90.5 125.94,-97.5"/>
</g>
<!-- Input2 -->
<g id="node4" class="node">
<title>Input2</title>
<path fill="#ffffff" stroke="#dddddd" d="M88,-52C88,-52 28,-52 28,-52 22,-52 16,-46 16,-40 16,-40 16,-28 16,-28 16,-22 22,-16 28,-16 28,-16 88,-16 88,-16 94,-16 100,-22 100,-28 100,-28 100,-40 100,-40 100,-46 94,-52 88,-52"/>
<text text-anchor="middle" x="58" y="-30.3" font-family="Inter,Arial" font-size="14.00" fill="#eeeeee">Transform</text>
</g>
<!-- Input&#45;&gt;Input2 -->
<g id="edge1" class="edge">
<title>Input&#45;&gt;Input2</title>
<path fill="none" stroke="#dddddd" d="M58,-75.75C58,-71.35 58,-66.95 58,-62.55"/>
<polygon fill="#dddddd" stroke="#dddddd" points="61.5,-62.28 58,-52.28 54.5,-62.28 61.5,-62.28"/>
</g>
<!-- Analysis -->
<g id="node3" class="node">
<title>Analysis</title>
<path fill="#ffffff" stroke="#dddddd" d="M406,-112C406,-112 269,-112 269,-112 263,-112 257,-106 257,-100 257,-100 257,-88 257,-88 257,-82 263,-76 269,-76 269,-76 406,-76 406,-76 412,-76 418,-82 418,-88 418,-88 418,-100 418,-100 418,-106 412,-112 406,-112"/>
<text text-anchor="middle" x="337.5" y="-90.3" font-family="Inter,Arial" font-size="14.00" fill="#eeeeee">Metamorphic Relation</text>
</g>
<!-- Evaluation&#45;&gt;Analysis -->
<g id="edge4" class="edge">
<title>Evaluation&#45;&gt;Analysis</title>
<path fill="none" stroke="#dddddd" d="M221.16,-94C229.21,-94 237.93,-94 246.85,-94"/>
<polygon fill="#dddddd" stroke="#dddddd" points="246.98,-97.5 256.98,-94 246.98,-90.5 246.98,-97.5"/>
</g>
<!-- Evaluation2 -->
<g id="node5" class="node">
<title>Evaluation2</title>
<path fill="#ffffff" stroke="#586e75" d="M209,-52C209,-52 148,-52 148,-52 142,-52 136,-46 136,-40 136,-40 136,-28 136,-28 136,-22 142,-16 148,-16 148,-16 209,-16 209,-16 215,-16 221,-22 221,-28 221,-28 221,-40 221,-40 221,-46 215,-52 209,-52"/>
<text text-anchor="middle" x="178.5" y="-30.3" font-family="Inter,Arial" font-size="14.00" fill="#586e75">Evaluation</text>
</g>
<!-- Input2&#45;&gt;Evaluation2 -->
<g id="edge2" class="edge">
<title>Input2&#45;&gt;Evaluation2</title>
<path fill="none" stroke="#dddddd" d="M100.11,-34C108.29,-34 116.97,-34 125.45,-34"/>
<polygon fill="#dddddd" stroke="#dddddd" points="125.66,-37.5 135.66,-34 125.66,-30.5 125.66,-37.5"/>
</g>
<!-- Evaluation2&#45;&gt;Analysis -->
<g id="edge5" class="edge">
<title>Evaluation2&#45;&gt;Analysis</title>
<path fill="none" stroke="#dddddd" d="M221.16,-49.92C239.19,-56.81 260.58,-64.99 280.01,-72.41"/>
<polygon fill="#dddddd" stroke="#dddddd" points="278.78,-75.69 289.37,-75.99 281.28,-69.15 278.78,-75.69"/>
</g>
</g>
</svg>
