<?xml version="1.0" encoding="UTF-8" standalone="no"?>
<!DOCTYPE svg PUBLIC "-//W3C//DTD SVG 1.1//EN"
 "http://www.w3.org/Graphics/SVG/1.1/DTD/svg11.dtd">
<!-- Generated by graphviz version 2.43.0 (0)
 -->
<!-- Title: %3 Pages: 1 -->
<svg width="339pt" height="136pt"
 viewBox="0.00 0.00 339.00 136.00" xmlns="http://www.w3.org/2000/svg" xmlns:xlink="http://www.w3.org/1999/xlink">
<g id="graph0" class="graph" transform="scale(1 1) rotate(0) translate(4 132)">
<title>%3</title>
<g id="clust1" class="cluster">
<title>cluster_0</title>
<polygon fill="transparent" stroke="transparent" points="13.5,-68 13.5,-120 323,-120 323,-68 13.5,-68"/>
</g>
<g id="clust2" class="cluster">
<title>cluster_1</title>
<polygon fill="transparent" stroke="transparent" points="8,-8 8,-60 219,-60 219,-8 8,-8"/>
</g>
<!-- Input -->
<g id="node1" class="node">
<title>Input</title>
<path fill="#ffffff" stroke="#586e75" d="M77.5,-112C77.5,-112 33.5,-112 33.5,-112 27.5,-112 21.5,-106 21.5,-100 21.5,-100 21.5,-88 21.5,-88 21.5,-82 27.5,-76 33.5,-76 33.5,-76 77.5,-76 77.5,-76 83.5,-76 89.5,-82 89.5,-88 89.5,-88 89.5,-100 89.5,-100 89.5,-106 83.5,-112 77.5,-112"/>
<text text-anchor="middle" x="55.5" y="-90.3" font-family="Inter,Arial" font-size="14.00" fill="#586e75">Random</text>
</g>
<!-- Evaluation -->
<g id="node2" class="node">
<title>Evaluation</title>
<path fill="#ffffff" stroke="#586e75" d="M199,-112C199,-112 143,-112 143,-112 137,-112 131,-106 131,-100 131,-100 131,-88 131,-88 131,-82 137,-76 143,-76 143,-76 199,-76 199,-76 205,-76 211,-82 211,-88 211,-88 211,-100 211,-100 211,-106 205,-112 199,-112"/>
<text text-anchor="middle" x="171" y="-90.3" font-family="Inter,Arial" font-size="14.00" fill="#586e75">Evaluation</text>
</g>
<!-- Input&#45;&gt;Evaluation -->
<g id="edge3" class="edge">
<title>Input&#45;&gt;Evaluation</title>
<path fill="none" stroke="#586e75" d="M89.63,-94C99.25,-94 109.97,-94 120.37,-94"/>
<polygon fill="#586e75" stroke="#586e75" points="120.6,-97.5 130.6,-94 120.6,-90.5 120.6,-97.5"/>
</g>
<!-- Input2 -->
<!-- Input&#45;&gt;Input2 -->
<!-- Analysis -->
<g id="node3" class="node">
<title>Analysis</title>
<path fill="#ffffff" stroke="#586e75" d="M303,-112C303,-112 259,-112 259,-112 253,-112 247,-106 247,-100 247,-100 247,-88 247,-88 247,-82 253,-76 259,-76 259,-76 303,-76 303,-76 309,-76 315,-82 315,-88 315,-88 315,-100 315,-100 315,-106 309,-112 303,-112"/>
<text text-anchor="middle" x="281" y="-90.3" font-family="Inter,Arial" font-size="14.00" fill="#586e75">Property</text>
</g>
<!-- Evaluation&#45;&gt;Analysis -->
<g id="edge4" class="edge">
<title>Evaluation&#45;&gt;Analysis</title>
<path fill="none" stroke="#586e75" d="M211.3,-94C219.61,-94 228.44,-94 236.89,-94"/>
<polygon fill="#586e75" stroke="#586e75" points="236.95,-97.5 246.95,-94 236.95,-90.5 236.95,-97.5"/>
</g>
<!-- Evaluation2 -->
<!-- Input2&#45;&gt;Evaluation2 -->
<!-- Evaluation2&#45;&gt;Analysis -->
</g>
</svg>
