<?xml version="1.0" encoding="UTF-8" standalone="no"?>
<!DOCTYPE svg PUBLIC "-//W3C//DTD SVG 1.1//EN"
 "http://www.w3.org/Graphics/SVG/1.1/DTD/svg11.dtd">
<!-- Generated by graphviz version 2.43.0 (0)
 -->
<!-- Title: %3 Pages: 1 -->
<svg width="365pt" height="174pt"
 viewBox="0.00 0.00 365.00 174.00" xmlns="http://www.w3.org/2000/svg" xmlns:xlink="http://www.w3.org/1999/xlink">
<g id="graph0" class="graph" transform="scale(1 1) rotate(0) translate(4 170)">
<title>%3</title>
<g id="clust1" class="cluster rounded">
<title>cluster_0</title>
<path fill="transparent" stroke="#586e75" d="M94,-87C94,-87 263,-87 263,-87 269,-87 275,-93 275,-99 275,-99 275,-146 275,-146 275,-152 269,-158 263,-158 263,-158 94,-158 94,-158 88,-158 82,-152 82,-146 82,-146 82,-99 82,-99 82,-93 88,-87 94,-87"/>
<text text-anchor="middle" x="101" y="-146" font-family="Inter,Arial" font-size="10.00" fill="#586e75">main</text>
</g>
<g id="clust2" class="cluster rounded">
<title>cluster_1</title>
<path fill="transparent" stroke="#586e75" d="M94,-8C94,-8 263,-8 263,-8 269,-8 275,-14 275,-20 275,-20 275,-67 275,-67 275,-73 269,-79 263,-79 263,-79 94,-79 94,-79 88,-79 82,-73 82,-67 82,-67 82,-20 82,-20 82,-14 88,-8 94,-8"/>
<text text-anchor="middle" x="98.5" y="-67" font-family="Inter,Arial" font-size="10.00" fill="#586e75">test</text>
</g>
<!-- System -->
<g id="node1" class="node disabled">
<title>System</title>
<path fill="#ffffff" stroke="#d0dce3" d="M157,-131C157,-131 102,-131 102,-131 96,-131 90,-125 90,-119 90,-119 90,-107 90,-107 90,-101 96,-95 102,-95 102,-95 157,-95 157,-95 163,-95 169,-101 169,-107 169,-107 169,-119 169,-119 169,-125 163,-131 157,-131"/>
<text text-anchor="middle" x="129.5" y="-109.3" font-family="Inter,Arial" font-size="14.00" fill="#d0dce3">findTracks</text>
</g>
<!-- Result -->
<g id="node2" class="node">
<title>Result</title>
<path fill="#ffffff" stroke="#586e75" d="M255,-131C255,-131 217,-131 217,-131 211,-131 205,-125 205,-119 205,-119 205,-107 205,-107 205,-101 211,-95 217,-95 217,-95 255,-95 255,-95 261,-95 267,-101 267,-107 267,-107 267,-119 267,-119 267,-125 261,-131 255,-131"/>
<text text-anchor="middle" x="236" y="-109.3" font-family="Inter,Arial" font-size="14.00" fill="#586e75">Results</text>
</g>
<!-- System&#45;&gt;Result -->
<g id="edge3" class="edge disabled">
<title>System&#45;&gt;Result</title>
<path fill="none" stroke="#d0dce3" d="M169.12,-113C177.37,-113 186.12,-113 194.45,-113"/>
<polygon fill="#d0dce3" stroke="#d0dce3" points="194.71,-116.5 204.71,-113 194.71,-109.5 194.71,-116.5"/>
</g>
<!-- Relation -->
<g id="node6" class="node">
<title>Relation</title>
<path fill="#ffffff" stroke="#586e75" d="M345,-91C345,-91 315,-91 315,-91 309,-91 303,-85 303,-79 303,-79 303,-67 303,-67 303,-61 309,-55 315,-55 315,-55 345,-55 345,-55 351,-55 357,-61 357,-67 357,-67 357,-79 357,-79 357,-85 351,-91 345,-91"/>
<text text-anchor="middle" x="330" y="-69.3" font-family="Inter,Arial" font-size="14.00" fill="#586e75">=</text>
</g>
<!-- Result&#45;&gt;Relation -->
<g id="edge5" class="edge">
<title>Result&#45;&gt;Relation</title>
<path fill="none" stroke="#586e75" d="M267.12,-99.9C275.59,-96.22 284.88,-92.18 293.62,-88.38"/>
<polygon fill="#586e75" stroke="#586e75" points="295.05,-91.58 302.83,-84.38 292.26,-85.16 295.05,-91.58"/>
</g>
<!-- System2 -->
<g id="node3" class="node disabled">
<title>System2</title>
<path fill="#ffffff" stroke="#d0dce3" d="M157,-52C157,-52 102,-52 102,-52 96,-52 90,-46 90,-40 90,-40 90,-28 90,-28 90,-22 96,-16 102,-16 102,-16 157,-16 157,-16 163,-16 169,-22 169,-28 169,-28 169,-40 169,-40 169,-46 163,-52 157,-52"/>
<text text-anchor="middle" x="129.5" y="-30.3" font-family="Inter,Arial" font-size="14.00" fill="#d0dce3">findTracks</text>
</g>
<!-- Result2 -->
<g id="node4" class="node">
<title>Result2</title>
<path fill="#ffffff" stroke="#586e75" d="M255,-52C255,-52 217,-52 217,-52 211,-52 205,-46 205,-40 205,-40 205,-28 205,-28 205,-22 211,-16 217,-16 217,-16 255,-16 255,-16 261,-16 267,-22 267,-28 267,-28 267,-40 267,-40 267,-46 261,-52 255,-52"/>
<text text-anchor="middle" x="236" y="-30.3" font-family="Inter,Arial" font-size="14.00" fill="#586e75">Results</text>
</g>
<!-- System2&#45;&gt;Result2 -->
<g id="edge4" class="edge disabled">
<title>System2&#45;&gt;Result2</title>
<path fill="none" stroke="#d0dce3" d="M169.12,-34C177.37,-34 186.12,-34 194.45,-34"/>
<polygon fill="#d0dce3" stroke="#d0dce3" points="194.71,-37.5 204.71,-34 194.71,-30.5 194.71,-37.5"/>
</g>
<!-- Result2&#45;&gt;Relation -->
<g id="edge6" class="edge">
<title>Result2&#45;&gt;Relation</title>
<path fill="none" stroke="#586e75" d="M267.12,-46.77C275.59,-50.36 284.88,-54.29 293.62,-58"/>
<polygon fill="#586e75" stroke="#586e75" points="292.26,-61.23 302.83,-61.91 294.99,-54.78 292.26,-61.23"/>
</g>
<!-- Input -->
<g id="node5" class="node disabled">
<title>Input</title>
<path fill="#ffffff" stroke="#d0dce3" d="M42,-91C42,-91 12,-91 12,-91 6,-91 0,-85 0,-79 0,-79 0,-67 0,-67 0,-61 6,-55 12,-55 12,-55 42,-55 42,-55 48,-55 54,-61 54,-67 54,-67 54,-79 54,-79 54,-85 48,-91 42,-91"/>
<text text-anchor="middle" x="27" y="-69.3" font-family="Inter,Arial" font-size="14.00" fill="#d0dce3">Query</text>
</g>
<!-- Input&#45;&gt;System -->
<g id="edge1" class="edge disabled">
<title>Input&#45;&gt;System</title>
<path fill="none" stroke="#d0dce3" d="M54.14,-83.41C62.26,-86.63 71.47,-90.3 80.58,-93.93"/>
<polygon fill="#d0dce3" stroke="#d0dce3" points="79.41,-97.23 89.99,-97.67 82,-90.72 79.41,-97.23"/>
</g>
<!-- Input&#45;&gt;System2 -->
<g id="edge2" class="edge disabled">
<title>Input&#45;&gt;System2</title>
<path fill="none" stroke="#d0dce3" d="M54.14,-62.86C62.26,-59.71 71.47,-56.13 80.58,-52.59"/>
<polygon fill="#d0dce3" stroke="#d0dce3" points="81.94,-55.82 89.99,-48.94 79.4,-49.3 81.94,-55.82"/>
</g>
</g>
</svg>
