<?xml version="1.0" encoding="UTF-8" standalone="no"?>
<!DOCTYPE svg PUBLIC "-//W3C//DTD SVG 1.1//EN"
 "http://www.w3.org/Graphics/SVG/1.1/DTD/svg11.dtd">
<!-- Generated by graphviz version 2.43.0 (0)
 -->
<!-- Title: %3 Pages: 1 -->
<svg width="365pt" height="174pt"
 viewBox="0.00 0.00 365.00 174.00" xmlns="http://www.w3.org/2000/svg" xmlns:xlink="http://www.w3.org/1999/xlink">
<g id="graph0" class="graph" transform="scale(1 1) rotate(0) translate(4 170)">
<title>%3</title>
<g id="clust1" class="cluster rounded">
<title>cluster_0</title>
<path fill="transparent" stroke="#586e75" d="M94,-87C94,-87 263,-87 263,-87 269,-87 275,-93 275,-99 275,-99 275,-146 275,-146 275,-152 269,-158 263,-158 263,-158 94,-158 94,-158 88,-158 82,-152 82,-146 82,-146 82,-99 82,-99 82,-93 88,-87 94,-87"/>
<text text-anchor="middle" x="101" y="-146" font-family="Inter,Arial" font-size="10.00" fill="#586e75">main</text>
</g>
<g id="clust2" class="cluster rounded">
<title>cluster_1</title>
<path fill="transparent" stroke="#586e75" d="M94,-8C94,-8 263,-8 263,-8 269,-8 275,-14 275,-20 275,-20 275,-67 275,-67 275,-73 269,-79 263,-79 263,-79 94,-79 94,-79 88,-79 82,-73 82,-67 82,-67 82,-20 82,-20 82,-14 88,-8 94,-8"/>
<text text-anchor="middle" x="98.5" y="-67" font-family="Inter,Arial" font-size="10.00" fill="#586e75">test</text>
</g>
<!-- System -->
<g id="node1" class="node">
<title>System</title>
<path fill="#ffffff" stroke="#586e75" d="M157,-131C157,-131 102,-131 102,-131 96,-131 90,-125 90,-119 90,-119 90,-107 90,-107 90,-101 96,-95 102,-95 102,-95 157,-95 157,-95 163,-95 169,-101 169,-107 169,-107 169,-119 169,-119 169,-125 163,-131 157,-131"/>
<text text-anchor="middle" x="129.5" y="-109.3" font-family="Inter,Arial" font-size="14.00" fill="#586e75">findTracks</text>
</g>
<!-- Result -->
<!-- System&#45;&gt;Result -->
<!-- Relation -->
<!-- Result&#45;&gt;Relation -->
<!-- System2 -->
<!-- Result2 -->
<!-- System2&#45;&gt;Result2 -->
<!-- Result2&#45;&gt;Relation -->
<!-- Input -->
<!-- Input&#45;&gt;System -->
<!-- Input&#45;&gt;System2 -->
</g>
</svg>
