<?xml version="1.0" encoding="UTF-8" standalone="no"?>
<!DOCTYPE svg PUBLIC "-//W3C//DTD SVG 1.1//EN"
 "http://www.w3.org/Graphics/SVG/1.1/DTD/svg11.dtd">
<!-- Generated by graphviz version 2.43.0 (0)
 -->
<!-- Title: %3 Pages: 1 -->
<svg width="328pt" height="114pt"
 viewBox="0.00 0.00 328.00 114.00" xmlns="http://www.w3.org/2000/svg" xmlns:xlink="http://www.w3.org/1999/xlink">
<g id="graph0" class="graph" transform="scale(1 1) rotate(0) translate(4 110)">
<title>%3</title>
<g id="clust1" class="cluster">
<title>cluster_0</title>
<polygon fill="transparent" stroke="transparent" points="8,-46 8,-98 312,-98 312,-46 8,-46"/>
</g>
<!-- Input -->
<g id="node1" class="node disabled">
<title>Input</title>
<path fill="#ffffff" stroke="#d0dce3" d="M72,-90C72,-90 28,-90 28,-90 22,-90 16,-84 16,-78 16,-78 16,-66 16,-66 16,-60 22,-54 28,-54 28,-54 72,-54 72,-54 78,-54 84,-60 84,-66 84,-66 84,-78 84,-78 84,-84 78,-90 72,-90"/>
<text text-anchor="middle" x="50" y="-68.3" font-family="Inter,Arial" font-size="14.00" fill="#d0dce3">Random</text>
</g>
<!-- Evaluation -->
<g id="node2" class="node">
<title>Evaluation</title>
<path fill="#ffffff" stroke="#586e75" d="M188,-90C188,-90 132,-90 132,-90 126,-90 120,-84 120,-78 120,-78 120,-66 120,-66 120,-60 126,-54 132,-54 132,-54 188,-54 188,-54 194,-54 200,-60 200,-66 200,-66 200,-78 200,-78 200,-84 194,-90 188,-90"/>
<text text-anchor="middle" x="160" y="-68.3" font-family="Inter,Arial" font-size="14.00" fill="#586e75">Evaluation</text>
</g>
<!-- Input&#45;&gt;Evaluation -->
<g id="edge1" class="edge disabled">
<title>Input&#45;&gt;Evaluation</title>
<path fill="none" stroke="#d0dce3" d="M84.28,-72C92.39,-72 101.23,-72 109.91,-72"/>
<polygon fill="#d0dce3" stroke="#d0dce3" points="109.95,-75.5 119.95,-72 109.95,-68.5 109.95,-75.5"/>
</g>
<!-- Reference -->
<g id="node4" class="node">
<title>Reference</title>
<path fill="#ffffff" stroke="#586e75" d="M187.5,-36C187.5,-36 132.5,-36 132.5,-36 126.5,-36 120.5,-30 120.5,-24 120.5,-24 120.5,-12 120.5,-12 120.5,-6 126.5,0 132.5,0 132.5,0 187.5,0 187.5,0 193.5,0 199.5,-6 199.5,-12 199.5,-12 199.5,-24 199.5,-24 199.5,-30 193.5,-36 187.5,-36"/>
<text text-anchor="middle" x="160" y="-14.3" font-family="Inter,Arial" font-size="14.00" fill="#586e75">Reference</text>
</g>
<!-- Input&#45;&gt;Reference -->
<g id="edge3" class="edge disabled">
<title>Input&#45;&gt;Reference</title>
<path fill="none" stroke="#d0dce3" d="M84.28,-55.36C93.49,-50.75 103.64,-45.68 113.42,-40.79"/>
<polygon fill="#d0dce3" stroke="#d0dce3" points="115.25,-43.79 122.63,-36.18 112.12,-37.53 115.25,-43.79"/>
</g>
<!-- Analysis -->
<g id="node3" class="node">
<title>Analysis</title>
<path fill="#ffffff" stroke="#586e75" d="M292,-90C292,-90 248,-90 248,-90 242,-90 236,-84 236,-78 236,-78 236,-66 236,-66 236,-60 242,-54 248,-54 248,-54 292,-54 292,-54 298,-54 304,-60 304,-66 304,-66 304,-78 304,-78 304,-84 298,-90 292,-90"/>
<text text-anchor="middle" x="270" y="-68.3" font-family="Inter,Arial" font-size="14.00" fill="#586e75">Property</text>
</g>
<!-- Evaluation&#45;&gt;Analysis -->
<g id="edge2" class="edge">
<title>Evaluation&#45;&gt;Analysis</title>
<path fill="none" stroke="#586e75" d="M200.3,-72C208.61,-72 217.44,-72 225.89,-72"/>
<polygon fill="#586e75" stroke="#586e75" points="225.95,-75.5 235.95,-72 225.95,-68.5 225.95,-75.5"/>
</g>
<!-- Reference&#45;&gt;Analysis -->
<g id="edge4" class="edge">
<title>Reference&#45;&gt;Analysis</title>
<path fill="none" stroke="#586e75" d="M197.26,-36.13C206.74,-40.87 217.03,-46.01 226.78,-50.89"/>
<polygon fill="#586e75" stroke="#586e75" points="225.42,-54.12 235.92,-55.46 228.55,-47.86 225.42,-54.12"/>
</g>
</g>
</svg>
