<?xml version="1.0" encoding="UTF-8" standalone="no"?>
<!DOCTYPE svg PUBLIC "-//W3C//DTD SVG 1.1//EN"
 "http://www.w3.org/Graphics/SVG/1.1/DTD/svg11.dtd">
<!-- Generated by graphviz version 2.43.0 (0)
 -->
<!-- Title: %3 Pages: 1 -->
<svg width="377pt" height="174pt"
 viewBox="0.00 0.00 377.00 174.00" xmlns="http://www.w3.org/2000/svg" xmlns:xlink="http://www.w3.org/1999/xlink">
<g id="graph0" class="graph" transform="scale(1 1) rotate(0) translate(4 170)">
<title>%3</title>
<g id="clust1" class="cluster rounded">
<title>cluster_0</title>
<path fill="transparent" stroke="#586e75" d="M96,-87C96,-87 275,-87 275,-87 281,-87 287,-93 287,-99 287,-99 287,-146 287,-146 287,-152 281,-158 275,-158 275,-158 96,-158 96,-158 90,-158 84,-152 84,-146 84,-146 84,-99 84,-99 84,-93 90,-87 96,-87"/>
<text text-anchor="middle" x="104" y="-146" font-family="Inter,Arial" font-size="10.00" fill="#586e75">main</text>
</g>
<g id="clust2" class="cluster rounded">
<title>cluster_1</title>
<path fill="transparent" stroke="#586e75" d="M96,-8C96,-8 275,-8 275,-8 281,-8 287,-14 287,-20 287,-20 287,-67 287,-67 287,-73 281,-79 275,-79 275,-79 96,-79 96,-79 90,-79 84,-73 84,-67 84,-67 84,-20 84,-20 84,-14 90,-8 96,-8"/>
<text text-anchor="middle" x="101.5" y="-67" font-family="Inter,Arial" font-size="10.00" fill="#586e75">test</text>
</g>
<!-- System -->
<g id="node1" class="node">
<title>System</title>
<path fill="#ffffff" stroke="#586e75" d="M166,-131C166,-131 104,-131 104,-131 98,-131 92,-125 92,-119 92,-119 92,-107 92,-107 92,-101 98,-95 104,-95 104,-95 166,-95 166,-95 172,-95 178,-101 178,-107 178,-107 178,-119 178,-119 178,-125 172,-131 166,-131"/>
<text text-anchor="middle" x="135" y="-109.3" font-family="Inter,Arial" font-size="14.00" fill="#586e75">findTracks</text>
</g>
<!-- Result -->
<!-- System&#45;&gt;Result -->
<!-- Relation -->
<!-- Result&#45;&gt;Relation -->
<!-- System2 -->
<!-- Result2 -->
<!-- System2&#45;&gt;Result2 -->
<!-- Result2&#45;&gt;Relation -->
<!-- Input -->
<!-- Input&#45;&gt;System -->
<!-- Input&#45;&gt;System2 -->
</g>
</svg>
