<?xml version="1.0" encoding="UTF-8" standalone="no"?>
<!DOCTYPE svg PUBLIC "-//W3C//DTD SVG 1.1//EN"
 "http://www.w3.org/Graphics/SVG/1.1/DTD/svg11.dtd">
<!-- Generated by graphviz version 2.43.0 (0)
 -->
<!-- Title: %3 Pages: 1 -->
<svg width="377pt" height="174pt"
 viewBox="0.00 0.00 377.00 174.00" xmlns="http://www.w3.org/2000/svg" xmlns:xlink="http://www.w3.org/1999/xlink">
<g id="graph0" class="graph" transform="scale(1 1) rotate(0) translate(4 170)">
<title>%3</title>
<g id="clust1" class="cluster rounded">
<title>cluster_0</title>
<path fill="transparent" stroke="#586e75" d="M96,-87C96,-87 275,-87 275,-87 281,-87 287,-93 287,-99 287,-99 287,-146 287,-146 287,-152 281,-158 275,-158 275,-158 96,-158 96,-158 90,-158 84,-152 84,-146 84,-146 84,-99 84,-99 84,-93 90,-87 96,-87"/>
<text text-anchor="middle" x="104" y="-146" font-family="Inter,Arial" font-size="10.00" fill="#586e75">main</text>
</g>
<g id="clust2" class="cluster rounded">
<title>cluster_1</title>
<path fill="transparent" stroke="#586e75" d="M96,-8C96,-8 275,-8 275,-8 281,-8 287,-14 287,-20 287,-20 287,-67 287,-67 287,-73 281,-79 275,-79 275,-79 96,-79 96,-79 90,-79 84,-73 84,-67 84,-67 84,-20 84,-20 84,-14 90,-8 96,-8"/>
<text text-anchor="middle" x="101.5" y="-67" font-family="Inter,Arial" font-size="10.00" fill="#586e75">test</text>
</g>
<!-- System -->
<g id="node1" class="node">
<title>System</title>
<path fill="#ffffff" stroke="#586e75" d="M166,-131C166,-131 104,-131 104,-131 98,-131 92,-125 92,-119 92,-119 92,-107 92,-107 92,-101 98,-95 104,-95 104,-95 166,-95 166,-95 172,-95 178,-101 178,-107 178,-107 178,-119 178,-119 178,-125 172,-131 166,-131"/>
<text text-anchor="middle" x="135" y="-109.3" font-family="Inter,Arial" font-size="14.00" fill="#586e75">findTracks</text>
</g>
<!-- Result -->
<!-- System&#45;&gt;Result -->
<!-- Relation -->
<!-- Result&#45;&gt;Relation -->
<!-- System2 -->
<g id="node3" class="node">
<title>System2</title>
<path fill="#ffffff" stroke="#586e75" d="M166,-52C166,-52 104,-52 104,-52 98,-52 92,-46 92,-40 92,-40 92,-28 92,-28 92,-22 98,-16 104,-16 104,-16 166,-16 166,-16 172,-16 178,-22 178,-28 178,-28 178,-40 178,-40 178,-46 172,-52 166,-52"/>
<text text-anchor="middle" x="135" y="-30.3" font-family="Inter,Arial" font-size="14.00" fill="#586e75">findTracks</text>
</g>
<!-- Result2 -->
<!-- System2&#45;&gt;Result2 -->
<!-- Result2&#45;&gt;Relation -->
<!-- Input -->
<g id="node5" class="node">
<title>Input</title>
<path fill="#ffffff" stroke="#586e75" d="M44,-91C44,-91 12,-91 12,-91 6,-91 0,-85 0,-79 0,-79 0,-67 0,-67 0,-61 6,-55 12,-55 12,-55 44,-55 44,-55 50,-55 56,-61 56,-67 56,-67 56,-79 56,-79 56,-85 50,-91 44,-91"/>
<text text-anchor="middle" x="28" y="-69.3" font-family="Inter,Arial" font-size="14.00" fill="#586e75">Query</text>
</g>
<!-- Input&#45;&gt;System -->
<g id="edge1" class="edge">
<title>Input&#45;&gt;System</title>
<path fill="none" stroke="#586e75" d="M56.04,-83.3C64.16,-86.39 73.35,-89.89 82.5,-93.38"/>
<polygon fill="#586e75" stroke="#586e75" points="81.38,-96.7 91.97,-96.99 83.87,-90.16 81.38,-96.7"/>
</g>
<!-- Input&#45;&gt;System2 -->
<g id="edge2" class="edge">
<title>Input&#45;&gt;System2</title>
<path fill="none" stroke="#586e75" d="M56.04,-62.96C64.16,-59.94 73.35,-56.53 82.5,-53.13"/>
<polygon fill="#586e75" stroke="#586e75" points="83.81,-56.37 91.97,-49.61 81.38,-49.81 83.81,-56.37"/>
</g>
</g>
</svg>
