<?xml version="1.0" encoding="UTF-8" standalone="no"?>
<!DOCTYPE svg PUBLIC "-//W3C//DTD SVG 1.1//EN"
 "http://www.w3.org/Graphics/SVG/1.1/DTD/svg11.dtd">
<!-- Generated by graphviz version 2.43.0 (0)
 -->
<!-- Title: %3 Pages: 1 -->
<svg width="323pt" height="311pt"
 viewBox="0.00 0.00 323.00 311.00" xmlns="http://www.w3.org/2000/svg" xmlns:xlink="http://www.w3.org/1999/xlink">
<g id="graph0" class="graph" transform="scale(1 1) rotate(0) translate(4 307)">
<title>%3</title>
<g id="clust1" class="cluster rounded">
<title>cluster_0</title>
<path fill="transparent" stroke="#586e75" d="M20,-224C20,-224 137,-224 137,-224 143,-224 149,-230 149,-236 149,-236 149,-283 149,-283 149,-289 143,-295 137,-295 137,-295 20,-295 20,-295 14,-295 8,-289 8,-283 8,-283 8,-236 8,-236 8,-230 14,-224 20,-224"/>
<text text-anchor="middle" x="29.5" y="-283" font-family="Inter,Arial" font-size="10.00" fill="#586e75">Query</text>
</g>
<g id="clust2" class="cluster rounded">
<title>cluster_1</title>
</g>
<!-- Maiden -->
<g id="node1" class="node">
<title>Maiden</title>
<path fill="#ffffff" stroke="#586e75" d="M129,-268C129,-268 28,-268 28,-268 22,-268 16,-262 16,-256 16,-256 16,-244 16,-244 16,-238 22,-232 28,-232 28,-232 129,-232 129,-232 135,-232 141,-238 141,-244 141,-244 141,-256 141,-256 141,-262 135,-268 129,-268"/>
<text text-anchor="middle" x="78.5" y="-246.3" font-family="Inter,Arial" font-size="14.00" fill="#586e75">artist: Iron Maiden</text>
</g>
<!-- Maiden1 -->
<!-- Maiden&#45;&gt;Maiden1 -->
<!-- Maiden2 -->
<!-- Metallica -->
<!-- Maiden3 -->
<!-- Maiden4 -->
</g>
</svg>
