<?xml version="1.0" encoding="UTF-8" standalone="no"?>
<!DOCTYPE svg PUBLIC "-//W3C//DTD SVG 1.1//EN"
 "http://www.w3.org/Graphics/SVG/1.1/DTD/svg11.dtd">
<!-- Generated by graphviz version 2.43.0 (0)
 -->
<!-- Title: %3 Pages: 1 -->
<svg width="345pt" height="311pt"
 viewBox="0.00 0.00 345.00 311.00" xmlns="http://www.w3.org/2000/svg" xmlns:xlink="http://www.w3.org/1999/xlink">
<g id="graph0" class="graph" transform="scale(1 1) rotate(0) translate(4 307)">
<title>%3</title>
<g id="clust1" class="cluster">
<title>cluster_0</title>
<path fill="transparent" stroke="#586e75" d="M20,-170C20,-170 150,-170 150,-170 156,-170 162,-176 162,-182 162,-182 162,-283 162,-283 162,-289 156,-295 150,-295 150,-295 20,-295 20,-295 14,-295 8,-289 8,-283 8,-283 8,-182 8,-182 8,-176 14,-170 20,-170"/>
<text text-anchor="middle" x="30.5" y="-283" font-family="Inter,Arial" font-size="10.00" fill="#586e75">Query</text>
</g>
<g id="clust2" class="cluster">
<title>cluster_1</title>
<path fill="transparent" stroke="#586e75" d="M230,-8C230,-8 317,-8 317,-8 323,-8 329,-14 329,-20 329,-20 329,-283 329,-283 329,-289 323,-295 317,-295 317,-295 230,-295 230,-295 224,-295 218,-289 218,-283 218,-283 218,-20 218,-20 218,-14 224,-8 230,-8"/>
<text text-anchor="middle" x="243.5" y="-283" font-family="Inter,Arial" font-size="10.00" fill="#586e75">Results</text>
</g>
<!-- Search -->
<g id="node1" class="node">
<title>Search</title>
<path fill="#ffffff" stroke="#586e75" d="M142,-268C142,-268 28,-268 28,-268 22,-268 16,-262 16,-256 16,-256 16,-244 16,-244 16,-238 22,-232 28,-232 28,-232 142,-232 142,-232 148,-232 154,-238 154,-244 154,-244 154,-256 154,-256 154,-262 148,-268 142,-268"/>
<text text-anchor="middle" x="85" y="-246.3" font-family="Inter,Arial" font-size="14.00" fill="#586e75">artist: Iron Maiden</text>
</g>
<!-- Maiden1 -->
<g id="node3" class="node">
<title>Maiden1</title>
<path fill="#ffffff" stroke="#586e75" d="M309,-268C309,-268 238,-268 238,-268 232,-268 226,-262 226,-256 226,-256 226,-244 226,-244 226,-238 232,-232 238,-232 238,-232 309,-232 309,-232 315,-232 321,-238 321,-244 321,-244 321,-256 321,-256 321,-262 315,-268 309,-268"/>
<text text-anchor="middle" x="273.5" y="-246.3" font-family="Inter,Arial" font-size="14.00" fill="#586e75">Iron Maiden</text>
</g>
<!-- Search&#45;&gt;Maiden1 -->
<g id="edge1" class="edge">
<title>Search&#45;&gt;Maiden1</title>
<path fill="none" stroke="#586e75" d="M154.12,-250C174.32,-250 196.22,-250 215.62,-250"/>
<polygon fill="#586e75" stroke="#586e75" points="208,-253.5 218,-250 208,-246.5 208,-253.5"/>
<text text-anchor="middle" x="190" y="-253.2" font-family="Inter,Arial" font-size="11.00" fill="#586e75">search</text>
</g>
<!-- Search2 -->
<g id="node2" class="node">
<title>Search2</title>
<path fill="#ffffff" stroke="#586e75" d="M121,-214C121,-214 49,-214 49,-214 43,-214 37,-208 37,-202 37,-202 37,-190 37,-190 37,-184 43,-178 49,-178 49,-178 121,-178 121,-178 127,-178 133,-184 133,-190 133,-190 133,-202 133,-202 133,-208 127,-214 121,-214"/>
<text text-anchor="middle" x="85" y="-192.3" font-family="Inter,Arial" font-size="14.00" fill="#586e75">year ≤ 1993</text>
</g>
<!-- Maiden2 -->
<g id="node4" class="node">
<title>Maiden2</title>
<path fill="#ffffff" stroke="#586e75" d="M309,-214C309,-214 238,-214 238,-214 232,-214 226,-208 226,-202 226,-202 226,-190 226,-190 226,-184 232,-178 238,-178 238,-178 309,-178 309,-178 315,-178 321,-184 321,-190 321,-190 321,-202 321,-202 321,-208 315,-214 309,-214"/>
<text text-anchor="middle" x="273.5" y="-192.3" font-family="Inter,Arial" font-size="14.00" fill="#586e75">Iron Maiden</text>
</g>
<!-- Metallica -->
<g id="node5" class="node">
<title>Metallica</title>
<path fill="#ffffff" stroke="#586e75" d="M299.5,-160C299.5,-160 247.5,-160 247.5,-160 241.5,-160 235.5,-154 235.5,-148 235.5,-148 235.5,-136 235.5,-136 235.5,-130 241.5,-124 247.5,-124 247.5,-124 299.5,-124 299.5,-124 305.5,-124 311.5,-130 311.5,-136 311.5,-136 311.5,-148 311.5,-148 311.5,-154 305.5,-160 299.5,-160"/>
<text text-anchor="middle" x="273.5" y="-138.3" font-family="Inter,Arial" font-size="14.00" fill="#586e75">Metallica</text>
</g>
<!-- Maiden3 -->
<g id="node6" class="node">
<title>Maiden3</title>
<path fill="#ffffff" stroke="#586e75" d="M309,-106C309,-106 238,-106 238,-106 232,-106 226,-100 226,-94 226,-94 226,-82 226,-82 226,-76 232,-70 238,-70 238,-70 309,-70 309,-70 315,-70 321,-76 321,-82 321,-82 321,-94 321,-94 321,-100 315,-106 309,-106"/>
<text text-anchor="middle" x="273.5" y="-84.3" font-family="Inter,Arial" font-size="14.00" fill="#586e75">Iron Maiden</text>
</g>
<!-- Maiden4 -->
<g id="node7" class="node">
<title>Maiden4</title>
<path fill="#ffffff" stroke="#586e75" d="M309,-52C309,-52 238,-52 238,-52 232,-52 226,-46 226,-40 226,-40 226,-28 226,-28 226,-22 232,-16 238,-16 238,-16 309,-16 309,-16 315,-16 321,-22 321,-28 321,-28 321,-40 321,-40 321,-46 315,-52 309,-52"/>
<text text-anchor="middle" x="273.5" y="-30.3" font-family="Inter,Arial" font-size="14.00" fill="#586e75">Iron Maiden</text>
</g>
</g>
</svg>
