<?xml version="1.0" encoding="UTF-8" standalone="no"?>
<!DOCTYPE svg PUBLIC "-//W3C//DTD SVG 1.1//EN"
 "http://www.w3.org/Graphics/SVG/1.1/DTD/svg11.dtd">
<!-- Generated by graphviz version 2.43.0 (0)
 -->
<!-- Title: %3 Pages: 1 -->
<svg width="345pt" height="311pt"
 viewBox="0.00 0.00 345.00 311.00" xmlns="http://www.w3.org/2000/svg" xmlns:xlink="http://www.w3.org/1999/xlink">
<g id="graph0" class="graph" transform="scale(1 1) rotate(0) translate(4 307)">
<title>%3</title>
<g id="clust1" class="cluster rounded">
<title>cluster_0</title>
<path fill="transparent" stroke="#586e75" d="M20,-224C20,-224 150,-224 150,-224 156,-224 162,-230 162,-236 162,-236 162,-283 162,-283 162,-289 156,-295 150,-295 150,-295 20,-295 20,-295 14,-295 8,-289 8,-283 8,-283 8,-236 8,-236 8,-230 14,-224 20,-224"/>
<text text-anchor="middle" x="30.5" y="-283" font-family="Inter,Arial" font-size="10.00" fill="#586e75">Query</text>
</g>
<g id="clust2" class="cluster rounded">
<title>cluster_1</title>
</g>
<!-- Maiden -->
<g id="node1" class="node">
<title>Maiden</title>
<path fill="#ffffff" stroke="#586e75" d="M142,-268C142,-268 28,-268 28,-268 22,-268 16,-262 16,-256 16,-256 16,-244 16,-244 16,-238 22,-232 28,-232 28,-232 142,-232 142,-232 148,-232 154,-238 154,-244 154,-244 154,-256 154,-256 154,-262 148,-268 142,-268"/>
<text text-anchor="middle" x="85" y="-246.3" font-family="Inter,Arial" font-size="14.00" fill="#586e75">artist: Iron Maiden</text>
</g>
<!-- Maiden1 -->
<!-- Maiden&#45;&gt;Maiden1 -->
<!-- Maiden2 -->
<!-- Metallica -->
<!-- Maiden3 -->
<!-- Maiden4 -->
</g>
</svg>
