<?xml version="1.0" encoding="UTF-8" standalone="no"?>
<!DOCTYPE svg PUBLIC "-//W3C//DTD SVG 1.1//EN"
 "http://www.w3.org/Graphics/SVG/1.1/DTD/svg11.dtd">
<!-- Generated by graphviz version 2.43.0 (0)
 -->
<!-- Title: %3 Pages: 1 -->
<svg width="345pt" height="365pt"
 viewBox="0.00 0.00 345.00 365.00" xmlns="http://www.w3.org/2000/svg" xmlns:xlink="http://www.w3.org/1999/xlink">
<g id="graph0" class="graph" transform="scale(1 1) rotate(0) translate(4 361)">
<title>%3</title>
<g id="clust1" class="cluster">
<title>cluster_0</title>
<path fill="transparent" stroke="#586e75" d="M20,-224C20,-224 150,-224 150,-224 156,-224 162,-230 162,-236 162,-236 162,-337 162,-337 162,-343 156,-349 150,-349 150,-349 20,-349 20,-349 14,-349 8,-343 8,-337 8,-337 8,-236 8,-236 8,-230 14,-224 20,-224"/>
<text text-anchor="middle" x="30.5" y="-337" font-family="Inter,Arial" font-size="10.00" fill="#586e75">Query</text>
</g>
<g id="clust2" class="cluster">
<title>cluster_1</title>
<path fill="transparent" stroke="#586e75" d="M230,-8C230,-8 317,-8 317,-8 323,-8 329,-14 329,-20 329,-20 329,-337 329,-337 329,-343 323,-349 317,-349 317,-349 230,-349 230,-349 224,-349 218,-343 218,-337 218,-337 218,-20 218,-20 218,-14 224,-8 230,-8"/>
<text text-anchor="middle" x="243.5" y="-337" font-family="Inter,Arial" font-size="10.00" fill="#586e75">Results</text>
</g>
<!-- Search -->
<g id="node1" class="node">
<title>Search</title>
<path fill="#ffffff" stroke="#586e75" d="M142,-322C142,-322 28,-322 28,-322 22,-322 16,-316 16,-310 16,-310 16,-298 16,-298 16,-292 22,-286 28,-286 28,-286 142,-286 142,-286 148,-286 154,-292 154,-298 154,-298 154,-310 154,-310 154,-316 148,-322 142,-322"/>
<text text-anchor="middle" x="85" y="-300.3" font-family="Inter,Arial" font-size="14.00" fill="#586e75">artist: Iron Maiden</text>
</g>
<!-- Maiden1 -->
<g id="node3" class="node">
<title>Maiden1</title>
<path fill="#ffffff" stroke="#586e75" d="M309,-322C309,-322 238,-322 238,-322 232,-322 226,-316 226,-310 226,-310 226,-298 226,-298 226,-292 232,-286 238,-286 238,-286 309,-286 309,-286 315,-286 321,-292 321,-298 321,-298 321,-310 321,-310 321,-316 315,-322 309,-322"/>
<text text-anchor="middle" x="273.5" y="-300.3" font-family="Inter,Arial" font-size="14.00" fill="#586e75">Iron Maiden</text>
</g>
<!-- Search&#45;&gt;Maiden1 -->
<g id="edge1" class="edge">
<title>Search&#45;&gt;Maiden1</title>
<path fill="none" stroke="#586e75" d="M154.12,-304C174.32,-304 196.22,-304 215.62,-304"/>
<polygon fill="#586e75" stroke="#586e75" points="208,-307.5 218,-304 208,-300.5 208,-307.5"/>
<text text-anchor="middle" x="190" y="-307.2" font-family="Inter,Arial" font-size="11.00" fill="#586e75">search</text>
</g>
<!-- Search2 -->
<g id="node2" class="node">
<title>Search2</title>
<path fill="#ffffff" stroke="#586e75" d="M121,-268C121,-268 49,-268 49,-268 43,-268 37,-262 37,-256 37,-256 37,-244 37,-244 37,-238 43,-232 49,-232 49,-232 121,-232 121,-232 127,-232 133,-238 133,-244 133,-244 133,-256 133,-256 133,-262 127,-268 121,-268"/>
<text text-anchor="middle" x="85" y="-246.3" font-family="Inter,Arial" font-size="14.00" fill="#586e75">year ≤ 1993</text>
</g>
<!-- Maiden2 -->
<g id="node4" class="node">
<title>Maiden2</title>
<path fill="#ffffff" stroke="#586e75" d="M309,-268C309,-268 238,-268 238,-268 232,-268 226,-262 226,-256 226,-256 226,-244 226,-244 226,-238 232,-232 238,-232 238,-232 309,-232 309,-232 315,-232 321,-238 321,-244 321,-244 321,-256 321,-256 321,-262 315,-268 309,-268"/>
<text text-anchor="middle" x="273.5" y="-246.3" font-family="Inter,Arial" font-size="14.00" fill="#586e75">Iron Maiden</text>
</g>
<!-- Metallica -->
<g id="node5" class="node">
<title>Metallica</title>
<path fill="#ffffff" stroke="#586e75" d="M299.5,-214C299.5,-214 247.5,-214 247.5,-214 241.5,-214 235.5,-208 235.5,-202 235.5,-202 235.5,-190 235.5,-190 235.5,-184 241.5,-178 247.5,-178 247.5,-178 299.5,-178 299.5,-178 305.5,-178 311.5,-184 311.5,-190 311.5,-190 311.5,-202 311.5,-202 311.5,-208 305.5,-214 299.5,-214"/>
<text text-anchor="middle" x="273.5" y="-192.3" font-family="Inter,Arial" font-size="14.00" fill="#586e75">Metallica</text>
</g>
<!-- Maiden3 -->
<g id="node6" class="node">
<title>Maiden3</title>
<path fill="#ffffff" stroke="#586e75" d="M309,-160C309,-160 238,-160 238,-160 232,-160 226,-154 226,-148 226,-148 226,-136 226,-136 226,-130 232,-124 238,-124 238,-124 309,-124 309,-124 315,-124 321,-130 321,-136 321,-136 321,-148 321,-148 321,-154 315,-160 309,-160"/>
<text text-anchor="middle" x="273.5" y="-138.3" font-family="Inter,Arial" font-size="14.00" fill="#586e75">Iron Maiden</text>
</g>
<!-- Maiden4 -->
<g id="node7" class="node">
<title>Maiden4</title>
<path fill="#ffffff" stroke="#586e75" d="M309,-106C309,-106 238,-106 238,-106 232,-106 226,-100 226,-94 226,-94 226,-82 226,-82 226,-76 232,-70 238,-70 238,-70 309,-70 309,-70 315,-70 321,-76 321,-82 321,-82 321,-94 321,-94 321,-100 315,-106 309,-106"/>
<text text-anchor="middle" x="273.5" y="-84.3" font-family="Inter,Arial" font-size="14.00" fill="#586e75">Iron Maiden</text>
</g>
<!-- Maiden5 -->
<g id="node8" class="node">
<title>Maiden5</title>
<path fill="#ffffff" stroke="#586e75" d="M309,-52C309,-52 238,-52 238,-52 232,-52 226,-46 226,-40 226,-40 226,-28 226,-28 226,-22 232,-16 238,-16 238,-16 309,-16 309,-16 315,-16 321,-22 321,-28 321,-28 321,-40 321,-40 321,-46 315,-52 309,-52"/>
<text text-anchor="middle" x="273.5" y="-30.3" font-family="Inter,Arial" font-size="14.00" fill="#586e75">Iron Maiden</text>
</g>
</g>
</svg>
