<?xml version="1.0" encoding="UTF-8" standalone="no"?>
<!DOCTYPE svg PUBLIC "-//W3C//DTD SVG 1.1//EN"
 "http://www.w3.org/Graphics/SVG/1.1/DTD/svg11.dtd">
<!-- Generated by graphviz version 2.43.0 (0)
 -->
<!-- Title: %3 Pages: 1 -->
<svg width="323pt" height="311pt"
 viewBox="0.00 0.00 323.00 311.00" xmlns="http://www.w3.org/2000/svg" xmlns:xlink="http://www.w3.org/1999/xlink">
<g id="graph0" class="graph" transform="scale(1 1) rotate(0) translate(4 307)">
<title>%3</title>
<g id="clust1" class="cluster rounded">
<title>cluster_0</title>
<path fill="transparent" stroke="#586e75" d="M20,-170C20,-170 137,-170 137,-170 143,-170 149,-176 149,-182 149,-182 149,-283 149,-283 149,-289 143,-295 137,-295 137,-295 20,-295 20,-295 14,-295 8,-289 8,-283 8,-283 8,-182 8,-182 8,-176 14,-170 20,-170"/>
<text text-anchor="middle" x="29.5" y="-283" font-family="Inter,Arial" font-size="10.00" fill="#586e75">Query</text>
</g>
<g id="clust2" class="cluster rounded,disabled">
<title>cluster_1</title>
<path fill="transparent" stroke="#d0dce3" d="M214,-8C214,-8 295,-8 295,-8 301,-8 307,-14 307,-20 307,-20 307,-283 307,-283 307,-289 301,-295 295,-295 295,-295 214,-295 214,-295 208,-295 202,-289 202,-283 202,-283 202,-20 202,-20 202,-14 208,-8 214,-8"/>
<text text-anchor="middle" x="227" y="-283" font-family="Inter,Arial" font-size="10.00" fill="#d0dce3">Results</text>
</g>
<!-- Search -->
<g id="node1" class="node">
<title>Search</title>
<path fill="#ffffff" stroke="#586e75" d="M129,-268C129,-268 28,-268 28,-268 22,-268 16,-262 16,-256 16,-256 16,-244 16,-244 16,-238 22,-232 28,-232 28,-232 129,-232 129,-232 135,-232 141,-238 141,-244 141,-244 141,-256 141,-256 141,-262 135,-268 129,-268"/>
<text text-anchor="middle" x="78.5" y="-246.3" font-family="Inter,Arial" font-size="14.00" fill="#586e75">artist: Iron Maiden</text>
</g>
<!-- Maiden1 -->
<g id="node3" class="node disabled">
<title>Maiden1</title>
<path fill="#ffffff" stroke="#d0dce3" d="M287,-268C287,-268 222,-268 222,-268 216,-268 210,-262 210,-256 210,-256 210,-244 210,-244 210,-238 216,-232 222,-232 222,-232 287,-232 287,-232 293,-232 299,-238 299,-244 299,-244 299,-256 299,-256 299,-262 293,-268 287,-268"/>
<text text-anchor="middle" x="254.5" y="-246.3" font-family="Inter,Arial" font-size="14.00" fill="#d0dce3">Iron Maiden</text>
</g>
<!-- Search&#45;&gt;Maiden1 -->
<g id="edge1" class="edge disabled">
<title>Search&#45;&gt;Maiden1</title>
<path fill="none" stroke="#d0dce3" d="M149,-250C165.94,-250 183.8,-250 199.87,-250"/>
<polygon fill="#d0dce3" stroke="#d0dce3" points="192,-253.5 202,-250 192,-246.5 192,-253.5"/>
<text text-anchor="middle" x="175.5" y="-253.2" font-family="Inter,Arial" font-size="11.00" fill="#d0dce3">search</text>
</g>
<!-- Search2 -->
<g id="node2" class="node">
<title>Search2</title>
<path fill="#ffffff" stroke="#586e75" d="M110.5,-214C110.5,-214 46.5,-214 46.5,-214 40.5,-214 34.5,-208 34.5,-202 34.5,-202 34.5,-190 34.5,-190 34.5,-184 40.5,-178 46.5,-178 46.5,-178 110.5,-178 110.5,-178 116.5,-178 122.5,-184 122.5,-190 122.5,-190 122.5,-202 122.5,-202 122.5,-208 116.5,-214 110.5,-214"/>
<text text-anchor="middle" x="78.5" y="-192.3" font-family="Inter,Arial" font-size="14.00" fill="#586e75">year ≤ 1993</text>
</g>
<!-- Maiden2 -->
<g id="node4" class="node disabled">
<title>Maiden2</title>
<path fill="#ffffff" stroke="#d0dce3" d="M287,-214C287,-214 222,-214 222,-214 216,-214 210,-208 210,-202 210,-202 210,-190 210,-190 210,-184 216,-178 222,-178 222,-178 287,-178 287,-178 293,-178 299,-184 299,-190 299,-190 299,-202 299,-202 299,-208 293,-214 287,-214"/>
<text text-anchor="middle" x="254.5" y="-192.3" font-family="Inter,Arial" font-size="14.00" fill="#d0dce3">Iron Maiden</text>
</g>
<!-- Metallica -->
<g id="node5" class="node disabled">
<title>Metallica</title>
<path fill="#ffffff" stroke="#d0dce3" d="M278,-160C278,-160 231,-160 231,-160 225,-160 219,-154 219,-148 219,-148 219,-136 219,-136 219,-130 225,-124 231,-124 231,-124 278,-124 278,-124 284,-124 290,-130 290,-136 290,-136 290,-148 290,-148 290,-154 284,-160 278,-160"/>
<text text-anchor="middle" x="254.5" y="-138.3" font-family="Inter,Arial" font-size="14.00" fill="#d0dce3">Metallica</text>
</g>
<!-- Maiden3 -->
<g id="node6" class="node disabled">
<title>Maiden3</title>
<path fill="#ffffff" stroke="#d0dce3" d="M287,-106C287,-106 222,-106 222,-106 216,-106 210,-100 210,-94 210,-94 210,-82 210,-82 210,-76 216,-70 222,-70 222,-70 287,-70 287,-70 293,-70 299,-76 299,-82 299,-82 299,-94 299,-94 299,-100 293,-106 287,-106"/>
<text text-anchor="middle" x="254.5" y="-84.3" font-family="Inter,Arial" font-size="14.00" fill="#d0dce3">Iron Maiden</text>
</g>
<!-- Maiden4 -->
<g id="node7" class="node disabled">
<title>Maiden4</title>
<path fill="#ffffff" stroke="#d0dce3" d="M287,-52C287,-52 222,-52 222,-52 216,-52 210,-46 210,-40 210,-40 210,-28 210,-28 210,-22 216,-16 222,-16 222,-16 287,-16 287,-16 293,-16 299,-22 299,-28 299,-28 299,-40 299,-40 299,-46 293,-52 287,-52"/>
<text text-anchor="middle" x="254.5" y="-30.3" font-family="Inter,Arial" font-size="14.00" fill="#d0dce3">Iron Maiden</text>
</g>
</g>
</svg>
