<?xml version="1.0" encoding="UTF-8" standalone="no"?>
<!DOCTYPE svg PUBLIC "-//W3C//DTD SVG 1.1//EN"
 "http://www.w3.org/Graphics/SVG/1.1/DTD/svg11.dtd">
<!-- Generated by graphviz version 2.43.0 (0)
 -->
<!-- Title: %3 Pages: 1 -->
<svg width="323pt" height="365pt"
 viewBox="0.00 0.00 323.00 365.00" xmlns="http://www.w3.org/2000/svg" xmlns:xlink="http://www.w3.org/1999/xlink">
<g id="graph0" class="graph" transform="scale(1 1) rotate(0) translate(4 361)">
<title>%3</title>
<g id="clust1" class="cluster rounded">
<title>cluster_0</title>
<path fill="transparent" stroke="#586e75" d="M20,-224C20,-224 137,-224 137,-224 143,-224 149,-230 149,-236 149,-236 149,-337 149,-337 149,-343 143,-349 137,-349 137,-349 20,-349 20,-349 14,-349 8,-343 8,-337 8,-337 8,-236 8,-236 8,-230 14,-224 20,-224"/>
<text text-anchor="middle" x="29.5" y="-337" font-family="Inter,Arial" font-size="10.00" fill="#586e75">Query</text>
</g>
<g id="clust2" class="cluster rounded">
<title>cluster_1</title>
<path fill="transparent" stroke="#586e75" d="M214,-8C214,-8 295,-8 295,-8 301,-8 307,-14 307,-20 307,-20 307,-337 307,-337 307,-343 301,-349 295,-349 295,-349 214,-349 214,-349 208,-349 202,-343 202,-337 202,-337 202,-20 202,-20 202,-14 208,-8 214,-8"/>
<text text-anchor="middle" x="227" y="-337" font-family="Inter,Arial" font-size="10.00" fill="#586e75">Results</text>
</g>
<!-- Search -->
<g id="node1" class="node">
<title>Search</title>
<path fill="#ffffff" stroke="#586e75" d="M129,-322C129,-322 28,-322 28,-322 22,-322 16,-316 16,-310 16,-310 16,-298 16,-298 16,-292 22,-286 28,-286 28,-286 129,-286 129,-286 135,-286 141,-292 141,-298 141,-298 141,-310 141,-310 141,-316 135,-322 129,-322"/>
<text text-anchor="middle" x="78.5" y="-300.3" font-family="Inter,Arial" font-size="14.00" fill="#586e75">artist: Iron Maiden</text>
</g>
<!-- Maiden1 -->
<g id="node3" class="node">
<title>Maiden1</title>
<path fill="#ffffff" stroke="#586e75" d="M287,-322C287,-322 222,-322 222,-322 216,-322 210,-316 210,-310 210,-310 210,-298 210,-298 210,-292 216,-286 222,-286 222,-286 287,-286 287,-286 293,-286 299,-292 299,-298 299,-298 299,-310 299,-310 299,-316 293,-322 287,-322"/>
<text text-anchor="middle" x="254.5" y="-300.3" font-family="Inter,Arial" font-size="14.00" fill="#586e75">Iron Maiden</text>
</g>
<!-- Search&#45;&gt;Maiden1 -->
<g id="edge1" class="edge">
<title>Search&#45;&gt;Maiden1</title>
<path fill="none" stroke="#586e75" d="M149,-304C165.94,-304 183.8,-304 199.87,-304"/>
<polygon fill="#586e75" stroke="#586e75" points="192,-307.5 202,-304 192,-300.5 192,-307.5"/>
<text text-anchor="middle" x="175.5" y="-307.2" font-family="Inter,Arial" font-size="11.00" fill="#586e75">search</text>
</g>
<!-- Search2 -->
<g id="node2" class="node">
<title>Search2</title>
<path fill="#ffffff" stroke="#586e75" d="M110.5,-268C110.5,-268 46.5,-268 46.5,-268 40.5,-268 34.5,-262 34.5,-256 34.5,-256 34.5,-244 34.5,-244 34.5,-238 40.5,-232 46.5,-232 46.5,-232 110.5,-232 110.5,-232 116.5,-232 122.5,-238 122.5,-244 122.5,-244 122.5,-256 122.5,-256 122.5,-262 116.5,-268 110.5,-268"/>
<text text-anchor="middle" x="78.5" y="-246.3" font-family="Inter,Arial" font-size="14.00" fill="#586e75">year ≤ 1993</text>
</g>
<!-- Maiden2 -->
<g id="node4" class="node">
<title>Maiden2</title>
<path fill="#ffffff" stroke="#586e75" d="M287,-268C287,-268 222,-268 222,-268 216,-268 210,-262 210,-256 210,-256 210,-244 210,-244 210,-238 216,-232 222,-232 222,-232 287,-232 287,-232 293,-232 299,-238 299,-244 299,-244 299,-256 299,-256 299,-262 293,-268 287,-268"/>
<text text-anchor="middle" x="254.5" y="-246.3" font-family="Inter,Arial" font-size="14.00" fill="#586e75">Iron Maiden</text>
</g>
<!-- Metallica -->
<g id="node5" class="node">
<title>Metallica</title>
<path fill="#ffffff" stroke="#586e75" d="M278,-214C278,-214 231,-214 231,-214 225,-214 219,-208 219,-202 219,-202 219,-190 219,-190 219,-184 225,-178 231,-178 231,-178 278,-178 278,-178 284,-178 290,-184 290,-190 290,-190 290,-202 290,-202 290,-208 284,-214 278,-214"/>
<text text-anchor="middle" x="254.5" y="-192.3" font-family="Inter,Arial" font-size="14.00" fill="#586e75">Metallica</text>
</g>
<!-- Maiden3 -->
<g id="node6" class="node">
<title>Maiden3</title>
<path fill="#ffffff" stroke="#586e75" d="M287,-160C287,-160 222,-160 222,-160 216,-160 210,-154 210,-148 210,-148 210,-136 210,-136 210,-130 216,-124 222,-124 222,-124 287,-124 287,-124 293,-124 299,-130 299,-136 299,-136 299,-148 299,-148 299,-154 293,-160 287,-160"/>
<text text-anchor="middle" x="254.5" y="-138.3" font-family="Inter,Arial" font-size="14.00" fill="#586e75">Iron Maiden</text>
</g>
<!-- Maiden4 -->
<g id="node7" class="node">
<title>Maiden4</title>
<path fill="#ffffff" stroke="#586e75" d="M287,-106C287,-106 222,-106 222,-106 216,-106 210,-100 210,-94 210,-94 210,-82 210,-82 210,-76 216,-70 222,-70 222,-70 287,-70 287,-70 293,-70 299,-76 299,-82 299,-82 299,-94 299,-94 299,-100 293,-106 287,-106"/>
<text text-anchor="middle" x="254.5" y="-84.3" font-family="Inter,Arial" font-size="14.00" fill="#586e75">Iron Maiden</text>
</g>
<!-- Maiden5 -->
<g id="node8" class="node">
<title>Maiden5</title>
<path fill="#ffffff" stroke="#d52029" d="M287,-52C287,-52 222,-52 222,-52 216,-52 210,-46 210,-40 210,-40 210,-28 210,-28 210,-22 216,-16 222,-16 222,-16 287,-16 287,-16 293,-16 299,-22 299,-28 299,-28 299,-40 299,-40 299,-46 293,-52 287,-52"/>
<text text-anchor="middle" x="254.5" y="-30.3" font-family="Inter,Arial" font-size="14.00" fill="#d52029">Iron Maiden</text>
</g>
</g>
</svg>
